%TF.GenerationSoftware,KiCad,Pcbnew,(6.0.9)*%
%TF.CreationDate,2023-02-25T10:50:01-08:00*%
%TF.ProjectId,FlightBread,466c6967-6874-4427-9265-61642e6b6963,rev?*%
%TF.SameCoordinates,Original*%
%TF.FileFunction,Legend,Bot*%
%TF.FilePolarity,Positive*%
%FSLAX46Y46*%
G04 Gerber Fmt 4.6, Leading zero omitted, Abs format (unit mm)*
G04 Created by KiCad (PCBNEW (6.0.9)) date 2023-02-25 10:50:01*
%MOMM*%
%LPD*%
G01*
G04 APERTURE LIST*
%ADD10C,1.524000*%
%ADD11C,1.800000*%
%ADD12C,6.000000*%
%ADD13C,0.600000*%
G04 APERTURE END LIST*
%LPC*%
D10*
%TO.C,8V_BUCK1*%
X104128000Y-158496000D03*
D11*
X95008000Y-158496000D03*
X95008000Y-143256000D03*
X104128000Y-143256000D03*
%TD*%
D12*
%TO.C,BATT1*%
X105100000Y-170180000D03*
X98100000Y-170180000D03*
%TD*%
D10*
%TO.C,R2*%
X70104000Y-154432000D03*
X70104000Y-164592000D03*
%TD*%
%TO.C,R3*%
X91948000Y-72644000D03*
X91948000Y-82804000D03*
%TD*%
%TO.C,5V_BUCK1*%
X88380000Y-158496000D03*
D11*
X79260000Y-158496000D03*
X79260000Y-143256000D03*
X88380000Y-143256000D03*
%TD*%
%TO.C,M2_SIGNAL1*%
X51308000Y-156718000D03*
X51308000Y-159258000D03*
%TD*%
%TO.C,RADIO1*%
X110999425Y-84963000D03*
X110999425Y-87503000D03*
X110999425Y-90043000D03*
X110999425Y-92583000D03*
X110999425Y-95123000D03*
X110999425Y-97663000D03*
X110999425Y-100203000D03*
X113539425Y-95123000D03*
X113539425Y-84963000D03*
X113539425Y-100203000D03*
X113539425Y-97663000D03*
X113539425Y-92583000D03*
X113539425Y-90043000D03*
X113539425Y-87503000D03*
X116079425Y-92583000D03*
X116079425Y-87503000D03*
X116079425Y-97663000D03*
X116079425Y-95123000D03*
X116079425Y-100203000D03*
X116079425Y-90043000D03*
X116079425Y-84963000D03*
%TD*%
D13*
%TO.C,LM358*%
X63754000Y-149352000D03*
X66294000Y-149352000D03*
X68834000Y-149352000D03*
X71374000Y-149352000D03*
X71374000Y-144272000D03*
X68834000Y-144272000D03*
X66294000Y-144272000D03*
X63754000Y-144272000D03*
%TD*%
D11*
%TO.C,SV3*%
X121666000Y-139192000D03*
X121666000Y-136652000D03*
X121666000Y-134112000D03*
%TD*%
D10*
%TO.C,R4*%
X96520000Y-72644000D03*
X96520000Y-82804000D03*
%TD*%
D11*
%TO.C,SV1*%
X121666000Y-160528000D03*
X121666000Y-157988000D03*
X121666000Y-155448000D03*
%TD*%
%TO.C,SV2*%
X121666000Y-149860000D03*
X121666000Y-147320000D03*
X121666000Y-144780000D03*
%TD*%
%TO.C,TEENSY1*%
X101600000Y-128270000D03*
X101600000Y-125730000D03*
X101600000Y-123190000D03*
X101600000Y-120650000D03*
X101600000Y-118110000D03*
X101600000Y-115570000D03*
X101600000Y-113030000D03*
X101600000Y-110490000D03*
X101600000Y-107950000D03*
X101600000Y-105410000D03*
X101600000Y-102870000D03*
X101600000Y-100330000D03*
X101600000Y-97790000D03*
X86360000Y-97790000D03*
X86360000Y-100330000D03*
X86360000Y-102870000D03*
X86360000Y-105410000D03*
X86360000Y-107950000D03*
X86360000Y-110490000D03*
X86360000Y-113030000D03*
X86360000Y-115570000D03*
X86360000Y-118110000D03*
X86360000Y-120650000D03*
X86360000Y-123190000D03*
X101600000Y-92710000D03*
X101600000Y-90170000D03*
X101600000Y-87630000D03*
X101600000Y-85090000D03*
X101600000Y-82550000D03*
X101600000Y-80010000D03*
X101600000Y-77470000D03*
X101600000Y-74930000D03*
X101600000Y-72390000D03*
X86360000Y-72390000D03*
X86360000Y-74930000D03*
X86360000Y-77470000D03*
X86360000Y-80010000D03*
X86360000Y-82550000D03*
X86360000Y-85090000D03*
X86360000Y-87630000D03*
X86360000Y-90170000D03*
X86360000Y-92710000D03*
X101600000Y-130810000D03*
X101600000Y-95250000D03*
X86360000Y-130810000D03*
X86360000Y-128270000D03*
X86360000Y-125730000D03*
X86360000Y-95250000D03*
%TD*%
%TO.C,GPS1*%
X54102000Y-78994000D03*
X54102000Y-81534000D03*
X54102000Y-84074000D03*
X54102000Y-86614000D03*
X54102000Y-89154000D03*
X54102000Y-91694000D03*
X54102000Y-94234000D03*
X54102000Y-96774000D03*
X76962000Y-84074000D03*
X76962000Y-86614000D03*
X76962000Y-89154000D03*
X76962000Y-91694000D03*
%TD*%
%TO.C,LIDAR1*%
X121666000Y-117602000D03*
X121666000Y-115062000D03*
X121666000Y-112522000D03*
X121666000Y-109982000D03*
%TD*%
%TO.C,BLUE1*%
X67310000Y-66548000D03*
X64770000Y-66548000D03*
%TD*%
D10*
%TO.C,R1*%
X66040000Y-164592000D03*
X66040000Y-154432000D03*
%TD*%
D11*
%TO.C,IMU1*%
X74422000Y-129540000D03*
X74422000Y-127000000D03*
X74422000Y-124460000D03*
X74422000Y-121920000D03*
X74422000Y-119380000D03*
X74422000Y-116840000D03*
X74422000Y-114300000D03*
X74422000Y-111760000D03*
X74422000Y-109220000D03*
X61722000Y-124460000D03*
X61722000Y-121920000D03*
X61722000Y-119380000D03*
X61722000Y-116840000D03*
X61722000Y-114300000D03*
%TD*%
%TO.C,M1_SIGNAL1*%
X51308000Y-147066000D03*
X51308000Y-149606000D03*
%TD*%
%TO.C,BARO1*%
X51308000Y-112014000D03*
X51308000Y-114554000D03*
X51308000Y-117094000D03*
X51308000Y-119634000D03*
%TD*%
%TO.C,SV4*%
X121666000Y-128524000D03*
X121666000Y-125984000D03*
X121666000Y-123444000D03*
%TD*%
%TO.C,RED1*%
X78994000Y-66548000D03*
X76454000Y-66548000D03*
%TD*%
M02*
