M48
; DRILL file {KiCad (6.0.9)} date Sat Feb 25 10:50:58 2023
; FORMAT={-:-/ absolute / metric / decimal}
; #@! TF.CreationDate,2023-02-25T10:50:58-08:00
; #@! TF.GenerationSoftware,Kicad,Pcbnew,(6.0.9)
; #@! TF.FileFunction,Plated,1,2,PTH
FMAT,2
METRIC
; #@! TA.AperFunction,Plated,PTH,ComponentDrill
T1C0.300
; #@! TA.AperFunction,Plated,PTH,ViaDrill
T2C0.400
; #@! TA.AperFunction,Plated,PTH,ViaDrill
T3C0.500
; #@! TA.AperFunction,Plated,PTH,ComponentDrill
T4C0.762
; #@! TA.AperFunction,Plated,PTH,ComponentDrill
T5C0.900
; #@! TA.AperFunction,Plated,PTH,ComponentDrill
T6C4.200
%
G90
G05
T1
X63.754Y-144.272
X63.754Y-149.352
X66.294Y-144.272
X66.294Y-149.352
X68.834Y-144.272
X68.834Y-149.352
X71.374Y-144.272
X71.374Y-149.352
T2
X74.93Y-171.704
X81.28Y-128.524
X82.296Y-125.984
X89.408Y-171.45
X105.74Y-105.791
T3
X88.9Y-132.08
T4
X66.04Y-154.432
X66.04Y-164.592
X70.104Y-154.432
X70.104Y-164.592
X88.38Y-158.496
X91.948Y-72.644
X91.948Y-82.804
X96.52Y-72.644
X96.52Y-82.804
X104.128Y-158.496
T5
X51.308Y-112.014
X51.308Y-114.554
X51.308Y-117.094
X51.308Y-119.634
X51.308Y-147.066
X51.308Y-149.606
X51.308Y-156.718
X51.308Y-159.258
X54.102Y-78.994
X54.102Y-81.534
X54.102Y-84.074
X54.102Y-86.614
X54.102Y-89.154
X54.102Y-91.694
X54.102Y-94.234
X54.102Y-96.774
X61.722Y-114.3
X61.722Y-116.84
X61.722Y-119.38
X61.722Y-121.92
X61.722Y-124.46
X64.77Y-66.548
X67.31Y-66.548
X74.422Y-109.22
X74.422Y-111.76
X74.422Y-114.3
X74.422Y-116.84
X74.422Y-119.38
X74.422Y-121.92
X74.422Y-124.46
X74.422Y-127.0
X74.422Y-129.54
X76.454Y-66.548
X76.962Y-84.074
X76.962Y-86.614
X76.962Y-89.154
X76.962Y-91.694
X78.994Y-66.548
X79.26Y-143.256
X79.26Y-158.496
X86.36Y-72.39
X86.36Y-74.93
X86.36Y-77.47
X86.36Y-80.01
X86.36Y-82.55
X86.36Y-85.09
X86.36Y-87.63
X86.36Y-90.17
X86.36Y-92.71
X86.36Y-95.25
X86.36Y-97.79
X86.36Y-100.33
X86.36Y-102.87
X86.36Y-105.41
X86.36Y-107.95
X86.36Y-110.49
X86.36Y-113.03
X86.36Y-115.57
X86.36Y-118.11
X86.36Y-120.65
X86.36Y-123.19
X86.36Y-125.73
X86.36Y-128.27
X86.36Y-130.81
X88.38Y-143.256
X95.008Y-143.256
X95.008Y-158.496
X101.6Y-72.39
X101.6Y-74.93
X101.6Y-77.47
X101.6Y-80.01
X101.6Y-82.55
X101.6Y-85.09
X101.6Y-87.63
X101.6Y-90.17
X101.6Y-92.71
X101.6Y-95.25
X101.6Y-97.79
X101.6Y-100.33
X101.6Y-102.87
X101.6Y-105.41
X101.6Y-107.95
X101.6Y-110.49
X101.6Y-113.03
X101.6Y-115.57
X101.6Y-118.11
X101.6Y-120.65
X101.6Y-123.19
X101.6Y-125.73
X101.6Y-128.27
X101.6Y-130.81
X104.128Y-143.256
X110.999Y-84.963
X110.999Y-87.503
X110.999Y-90.043
X110.999Y-92.583
X110.999Y-95.123
X110.999Y-97.663
X110.999Y-100.203
X113.539Y-84.963
X113.539Y-87.503
X113.539Y-90.043
X113.539Y-92.583
X113.539Y-95.123
X113.539Y-97.663
X113.539Y-100.203
X116.079Y-84.963
X116.079Y-87.503
X116.079Y-90.043
X116.079Y-92.583
X116.079Y-95.123
X116.079Y-97.663
X116.079Y-100.203
X121.666Y-109.982
X121.666Y-112.522
X121.666Y-115.062
X121.666Y-117.602
X121.666Y-123.444
X121.666Y-125.984
X121.666Y-128.524
X121.666Y-134.112
X121.666Y-136.652
X121.666Y-139.192
X121.666Y-144.78
X121.666Y-147.32
X121.666Y-149.86
X121.666Y-155.448
X121.666Y-157.988
X121.666Y-160.528
T6
X98.1Y-170.18
X105.1Y-170.18
T0
M30
