%TF.GenerationSoftware,KiCad,Pcbnew,(6.0.9)*%
%TF.CreationDate,2023-02-25T10:51:09-08:00*%
%TF.ProjectId,FlightBread,466c6967-6874-4427-9265-61642e6b6963,rev?*%
%TF.SameCoordinates,Original*%
%TF.FileFunction,Drillmap*%
%TF.FilePolarity,Positive*%
%FSLAX45Y45*%
G04 Gerber Fmt 4.5, Leading zero omitted, Abs format (unit mm)*
G04 Created by KiCad (PCBNEW (6.0.9)) date 2023-02-25 10:51:09*
%MOMM*%
%LPD*%
G01*
G04 APERTURE LIST*
%ADD10C,0.100000*%
%ADD11C,0.200000*%
G04 APERTURE END LIST*
D10*
X12150000Y-6800000D02*
G75*
G03*
X12150000Y-6800000I-350000J0D01*
G01*
X4800000Y-17600000D02*
X12500000Y-17600000D01*
X12500000Y-17600000D02*
X12500000Y-6000000D01*
X12500000Y-6000000D02*
X4800000Y-6000000D01*
X4800000Y-6000000D02*
X4800000Y-17600000D01*
X12150000Y-17000000D02*
G75*
G03*
X12150000Y-17000000I-350000J0D01*
G01*
X5850000Y-17000000D02*
G75*
G03*
X5850000Y-17000000I-350000J0D01*
G01*
X5850000Y-6800000D02*
G75*
G03*
X5850000Y-6800000I-350000J0D01*
G01*
D11*
X5052619Y-17915476D02*
X5052619Y-17715476D01*
X5100238Y-17715476D01*
X5128810Y-17725000D01*
X5147857Y-17744048D01*
X5157381Y-17763095D01*
X5166905Y-17801190D01*
X5166905Y-17829762D01*
X5157381Y-17867857D01*
X5147857Y-17886905D01*
X5128810Y-17905952D01*
X5100238Y-17915476D01*
X5052619Y-17915476D01*
X5252619Y-17915476D02*
X5252619Y-17782143D01*
X5252619Y-17820238D02*
X5262143Y-17801190D01*
X5271667Y-17791667D01*
X5290714Y-17782143D01*
X5309762Y-17782143D01*
X5376429Y-17915476D02*
X5376429Y-17782143D01*
X5376429Y-17715476D02*
X5366905Y-17725000D01*
X5376429Y-17734524D01*
X5385952Y-17725000D01*
X5376429Y-17715476D01*
X5376429Y-17734524D01*
X5500238Y-17915476D02*
X5481190Y-17905952D01*
X5471667Y-17886905D01*
X5471667Y-17715476D01*
X5605000Y-17915476D02*
X5585952Y-17905952D01*
X5576429Y-17886905D01*
X5576429Y-17715476D01*
X5833571Y-17915476D02*
X5833571Y-17715476D01*
X5900238Y-17858333D01*
X5966905Y-17715476D01*
X5966905Y-17915476D01*
X6147857Y-17915476D02*
X6147857Y-17810714D01*
X6138333Y-17791667D01*
X6119286Y-17782143D01*
X6081190Y-17782143D01*
X6062143Y-17791667D01*
X6147857Y-17905952D02*
X6128809Y-17915476D01*
X6081190Y-17915476D01*
X6062143Y-17905952D01*
X6052619Y-17886905D01*
X6052619Y-17867857D01*
X6062143Y-17848810D01*
X6081190Y-17839286D01*
X6128809Y-17839286D01*
X6147857Y-17829762D01*
X6243095Y-17782143D02*
X6243095Y-17982143D01*
X6243095Y-17791667D02*
X6262143Y-17782143D01*
X6300238Y-17782143D01*
X6319286Y-17791667D01*
X6328809Y-17801190D01*
X6338333Y-17820238D01*
X6338333Y-17877381D01*
X6328809Y-17896429D01*
X6319286Y-17905952D01*
X6300238Y-17915476D01*
X6262143Y-17915476D01*
X6243095Y-17905952D01*
X6424048Y-17896429D02*
X6433571Y-17905952D01*
X6424048Y-17915476D01*
X6414524Y-17905952D01*
X6424048Y-17896429D01*
X6424048Y-17915476D01*
X6424048Y-17791667D02*
X6433571Y-17801190D01*
X6424048Y-17810714D01*
X6414524Y-17801190D01*
X6424048Y-17791667D01*
X6424048Y-17810714D01*
M02*
