%TF.GenerationSoftware,KiCad,Pcbnew,(6.0.9)*%
%TF.CreationDate,2023-02-25T10:50:01-08:00*%
%TF.ProjectId,FlightBread,466c6967-6874-4427-9265-61642e6b6963,rev?*%
%TF.SameCoordinates,Original*%
%TF.FileFunction,Legend,Top*%
%TF.FilePolarity,Positive*%
%FSLAX46Y46*%
G04 Gerber Fmt 4.6, Leading zero omitted, Abs format (unit mm)*
G04 Created by KiCad (PCBNEW (6.0.9)) date 2023-02-25 10:50:01*
%MOMM*%
%LPD*%
G01*
G04 APERTURE LIST*
G04 Aperture macros list*
%AMRoundRect*
0 Rectangle with rounded corners*
0 $1 Rounding radius*
0 $2 $3 $4 $5 $6 $7 $8 $9 X,Y pos of 4 corners*
0 Add a 4 corners polygon primitive as box body*
4,1,4,$2,$3,$4,$5,$6,$7,$8,$9,$2,$3,0*
0 Add four circle primitives for the rounded corners*
1,1,$1+$1,$2,$3*
1,1,$1+$1,$4,$5*
1,1,$1+$1,$6,$7*
1,1,$1+$1,$8,$9*
0 Add four rect primitives between the rounded corners*
20,1,$1+$1,$2,$3,$4,$5,0*
20,1,$1+$1,$4,$5,$6,$7,0*
20,1,$1+$1,$6,$7,$8,$9,0*
20,1,$1+$1,$8,$9,$2,$3,0*%
G04 Aperture macros list end*
%ADD10C,0.150000*%
%ADD11C,0.120000*%
%ADD12C,0.203200*%
%ADD13C,1.524000*%
%ADD14C,1.800000*%
%ADD15C,6.000000*%
%ADD16C,0.600000*%
%ADD17RoundRect,0.500000X-0.500000X-1.500000X0.500000X-1.500000X0.500000X1.500000X-0.500000X1.500000X0*%
G04 APERTURE END LIST*
D10*
%TO.C,8V_BUCK1*%
X96163238Y-160916952D02*
X96068000Y-160869333D01*
X96020380Y-160821714D01*
X95972761Y-160726476D01*
X95972761Y-160678857D01*
X96020380Y-160583619D01*
X96068000Y-160536000D01*
X96163238Y-160488380D01*
X96353714Y-160488380D01*
X96448952Y-160536000D01*
X96496571Y-160583619D01*
X96544190Y-160678857D01*
X96544190Y-160726476D01*
X96496571Y-160821714D01*
X96448952Y-160869333D01*
X96353714Y-160916952D01*
X96163238Y-160916952D01*
X96068000Y-160964571D01*
X96020380Y-161012190D01*
X95972761Y-161107428D01*
X95972761Y-161297904D01*
X96020380Y-161393142D01*
X96068000Y-161440761D01*
X96163238Y-161488380D01*
X96353714Y-161488380D01*
X96448952Y-161440761D01*
X96496571Y-161393142D01*
X96544190Y-161297904D01*
X96544190Y-161107428D01*
X96496571Y-161012190D01*
X96448952Y-160964571D01*
X96353714Y-160916952D01*
X96829904Y-160488380D02*
X97163238Y-161488380D01*
X97496571Y-160488380D01*
X97591809Y-161583619D02*
X98353714Y-161583619D01*
X98925142Y-160964571D02*
X99068000Y-161012190D01*
X99115619Y-161059809D01*
X99163238Y-161155047D01*
X99163238Y-161297904D01*
X99115619Y-161393142D01*
X99068000Y-161440761D01*
X98972761Y-161488380D01*
X98591809Y-161488380D01*
X98591809Y-160488380D01*
X98925142Y-160488380D01*
X99020380Y-160536000D01*
X99068000Y-160583619D01*
X99115619Y-160678857D01*
X99115619Y-160774095D01*
X99068000Y-160869333D01*
X99020380Y-160916952D01*
X98925142Y-160964571D01*
X98591809Y-160964571D01*
X99591809Y-160488380D02*
X99591809Y-161297904D01*
X99639428Y-161393142D01*
X99687047Y-161440761D01*
X99782285Y-161488380D01*
X99972761Y-161488380D01*
X100068000Y-161440761D01*
X100115619Y-161393142D01*
X100163238Y-161297904D01*
X100163238Y-160488380D01*
X101210857Y-161393142D02*
X101163238Y-161440761D01*
X101020380Y-161488380D01*
X100925142Y-161488380D01*
X100782285Y-161440761D01*
X100687047Y-161345523D01*
X100639428Y-161250285D01*
X100591809Y-161059809D01*
X100591809Y-160916952D01*
X100639428Y-160726476D01*
X100687047Y-160631238D01*
X100782285Y-160536000D01*
X100925142Y-160488380D01*
X101020380Y-160488380D01*
X101163238Y-160536000D01*
X101210857Y-160583619D01*
X101639428Y-161488380D02*
X101639428Y-160488380D01*
X102210857Y-161488380D02*
X101782285Y-160916952D01*
X102210857Y-160488380D02*
X101639428Y-161059809D01*
X103163238Y-161488380D02*
X102591809Y-161488380D01*
X102877523Y-161488380D02*
X102877523Y-160488380D01*
X102782285Y-160631238D01*
X102687047Y-160726476D01*
X102591809Y-160774095D01*
%TO.C,BATT1*%
X100004761Y-164266571D02*
X100147619Y-164314190D01*
X100195238Y-164361809D01*
X100242857Y-164457047D01*
X100242857Y-164599904D01*
X100195238Y-164695142D01*
X100147619Y-164742761D01*
X100052380Y-164790380D01*
X99671428Y-164790380D01*
X99671428Y-163790380D01*
X100004761Y-163790380D01*
X100100000Y-163838000D01*
X100147619Y-163885619D01*
X100195238Y-163980857D01*
X100195238Y-164076095D01*
X100147619Y-164171333D01*
X100100000Y-164218952D01*
X100004761Y-164266571D01*
X99671428Y-164266571D01*
X100623809Y-164504666D02*
X101100000Y-164504666D01*
X100528571Y-164790380D02*
X100861904Y-163790380D01*
X101195238Y-164790380D01*
X101385714Y-163790380D02*
X101957142Y-163790380D01*
X101671428Y-164790380D02*
X101671428Y-163790380D01*
X102147619Y-163790380D02*
X102719047Y-163790380D01*
X102433333Y-164790380D02*
X102433333Y-163790380D01*
X103576190Y-164790380D02*
X103004761Y-164790380D01*
X103290476Y-164790380D02*
X103290476Y-163790380D01*
X103195238Y-163933238D01*
X103100000Y-164028476D01*
X103004761Y-164076095D01*
%TO.C,R2*%
X70151619Y-159345333D02*
X70627809Y-159012000D01*
X70151619Y-158773904D02*
X71151619Y-158773904D01*
X71151619Y-159154857D01*
X71104000Y-159250095D01*
X71056380Y-159297714D01*
X70961142Y-159345333D01*
X70818285Y-159345333D01*
X70723047Y-159297714D01*
X70675428Y-159250095D01*
X70627809Y-159154857D01*
X70627809Y-158773904D01*
X71056380Y-159726285D02*
X71104000Y-159773904D01*
X71151619Y-159869142D01*
X71151619Y-160107238D01*
X71104000Y-160202476D01*
X71056380Y-160250095D01*
X70961142Y-160297714D01*
X70865904Y-160297714D01*
X70723047Y-160250095D01*
X70151619Y-159678666D01*
X70151619Y-160297714D01*
%TO.C,R3*%
X91995619Y-77557333D02*
X92471809Y-77224000D01*
X91995619Y-76985904D02*
X92995619Y-76985904D01*
X92995619Y-77366857D01*
X92948000Y-77462095D01*
X92900380Y-77509714D01*
X92805142Y-77557333D01*
X92662285Y-77557333D01*
X92567047Y-77509714D01*
X92519428Y-77462095D01*
X92471809Y-77366857D01*
X92471809Y-76985904D01*
X92995619Y-77890666D02*
X92995619Y-78509714D01*
X92614666Y-78176380D01*
X92614666Y-78319238D01*
X92567047Y-78414476D01*
X92519428Y-78462095D01*
X92424190Y-78509714D01*
X92186095Y-78509714D01*
X92090857Y-78462095D01*
X92043238Y-78414476D01*
X91995619Y-78319238D01*
X91995619Y-78033523D01*
X92043238Y-77938285D01*
X92090857Y-77890666D01*
%TO.C,5V_BUCK1*%
X80748571Y-160488380D02*
X80272380Y-160488380D01*
X80224761Y-160964571D01*
X80272380Y-160916952D01*
X80367619Y-160869333D01*
X80605714Y-160869333D01*
X80700952Y-160916952D01*
X80748571Y-160964571D01*
X80796190Y-161059809D01*
X80796190Y-161297904D01*
X80748571Y-161393142D01*
X80700952Y-161440761D01*
X80605714Y-161488380D01*
X80367619Y-161488380D01*
X80272380Y-161440761D01*
X80224761Y-161393142D01*
X81081904Y-160488380D02*
X81415238Y-161488380D01*
X81748571Y-160488380D01*
X81843809Y-161583619D02*
X82605714Y-161583619D01*
X83177142Y-160964571D02*
X83320000Y-161012190D01*
X83367619Y-161059809D01*
X83415238Y-161155047D01*
X83415238Y-161297904D01*
X83367619Y-161393142D01*
X83320000Y-161440761D01*
X83224761Y-161488380D01*
X82843809Y-161488380D01*
X82843809Y-160488380D01*
X83177142Y-160488380D01*
X83272380Y-160536000D01*
X83320000Y-160583619D01*
X83367619Y-160678857D01*
X83367619Y-160774095D01*
X83320000Y-160869333D01*
X83272380Y-160916952D01*
X83177142Y-160964571D01*
X82843809Y-160964571D01*
X83843809Y-160488380D02*
X83843809Y-161297904D01*
X83891428Y-161393142D01*
X83939047Y-161440761D01*
X84034285Y-161488380D01*
X84224761Y-161488380D01*
X84320000Y-161440761D01*
X84367619Y-161393142D01*
X84415238Y-161297904D01*
X84415238Y-160488380D01*
X85462857Y-161393142D02*
X85415238Y-161440761D01*
X85272380Y-161488380D01*
X85177142Y-161488380D01*
X85034285Y-161440761D01*
X84939047Y-161345523D01*
X84891428Y-161250285D01*
X84843809Y-161059809D01*
X84843809Y-160916952D01*
X84891428Y-160726476D01*
X84939047Y-160631238D01*
X85034285Y-160536000D01*
X85177142Y-160488380D01*
X85272380Y-160488380D01*
X85415238Y-160536000D01*
X85462857Y-160583619D01*
X85891428Y-161488380D02*
X85891428Y-160488380D01*
X86462857Y-161488380D02*
X86034285Y-160916952D01*
X86462857Y-160488380D02*
X85891428Y-161059809D01*
X87415238Y-161488380D02*
X86843809Y-161488380D01*
X87129523Y-161488380D02*
X87129523Y-160488380D01*
X87034285Y-160631238D01*
X86939047Y-160726476D01*
X86843809Y-160774095D01*
%TO.C,M2_SIGNAL1*%
X55427619Y-153749904D02*
X56427619Y-153749904D01*
X55713333Y-154083238D01*
X56427619Y-154416571D01*
X55427619Y-154416571D01*
X56332380Y-154845142D02*
X56380000Y-154892761D01*
X56427619Y-154988000D01*
X56427619Y-155226095D01*
X56380000Y-155321333D01*
X56332380Y-155368952D01*
X56237142Y-155416571D01*
X56141904Y-155416571D01*
X55999047Y-155368952D01*
X55427619Y-154797523D01*
X55427619Y-155416571D01*
X55332380Y-155607047D02*
X55332380Y-156368952D01*
X55475238Y-156559428D02*
X55427619Y-156702285D01*
X55427619Y-156940380D01*
X55475238Y-157035619D01*
X55522857Y-157083238D01*
X55618095Y-157130857D01*
X55713333Y-157130857D01*
X55808571Y-157083238D01*
X55856190Y-157035619D01*
X55903809Y-156940380D01*
X55951428Y-156749904D01*
X55999047Y-156654666D01*
X56046666Y-156607047D01*
X56141904Y-156559428D01*
X56237142Y-156559428D01*
X56332380Y-156607047D01*
X56380000Y-156654666D01*
X56427619Y-156749904D01*
X56427619Y-156988000D01*
X56380000Y-157130857D01*
X55427619Y-157559428D02*
X56427619Y-157559428D01*
X56380000Y-158559428D02*
X56427619Y-158464190D01*
X56427619Y-158321333D01*
X56380000Y-158178476D01*
X56284761Y-158083238D01*
X56189523Y-158035619D01*
X55999047Y-157988000D01*
X55856190Y-157988000D01*
X55665714Y-158035619D01*
X55570476Y-158083238D01*
X55475238Y-158178476D01*
X55427619Y-158321333D01*
X55427619Y-158416571D01*
X55475238Y-158559428D01*
X55522857Y-158607047D01*
X55856190Y-158607047D01*
X55856190Y-158416571D01*
X55427619Y-159035619D02*
X56427619Y-159035619D01*
X55427619Y-159607047D01*
X56427619Y-159607047D01*
X55713333Y-160035619D02*
X55713333Y-160511809D01*
X55427619Y-159940380D02*
X56427619Y-160273714D01*
X55427619Y-160607047D01*
X55427619Y-161416571D02*
X55427619Y-160940380D01*
X56427619Y-160940380D01*
X55427619Y-162273714D02*
X55427619Y-161702285D01*
X55427619Y-161988000D02*
X56427619Y-161988000D01*
X56284761Y-161892761D01*
X56189523Y-161797523D01*
X56141904Y-161702285D01*
%TO.C,RADIO1*%
X111680857Y-78303380D02*
X111347523Y-77827190D01*
X111109428Y-78303380D02*
X111109428Y-77303380D01*
X111490380Y-77303380D01*
X111585619Y-77351000D01*
X111633238Y-77398619D01*
X111680857Y-77493857D01*
X111680857Y-77636714D01*
X111633238Y-77731952D01*
X111585619Y-77779571D01*
X111490380Y-77827190D01*
X111109428Y-77827190D01*
X112061809Y-78017666D02*
X112538000Y-78017666D01*
X111966571Y-78303380D02*
X112299904Y-77303380D01*
X112633238Y-78303380D01*
X112966571Y-78303380D02*
X112966571Y-77303380D01*
X113204666Y-77303380D01*
X113347523Y-77351000D01*
X113442761Y-77446238D01*
X113490380Y-77541476D01*
X113538000Y-77731952D01*
X113538000Y-77874809D01*
X113490380Y-78065285D01*
X113442761Y-78160523D01*
X113347523Y-78255761D01*
X113204666Y-78303380D01*
X112966571Y-78303380D01*
X113966571Y-78303380D02*
X113966571Y-77303380D01*
X114633238Y-77303380D02*
X114823714Y-77303380D01*
X114918952Y-77351000D01*
X115014190Y-77446238D01*
X115061809Y-77636714D01*
X115061809Y-77970047D01*
X115014190Y-78160523D01*
X114918952Y-78255761D01*
X114823714Y-78303380D01*
X114633238Y-78303380D01*
X114538000Y-78255761D01*
X114442761Y-78160523D01*
X114395142Y-77970047D01*
X114395142Y-77636714D01*
X114442761Y-77446238D01*
X114538000Y-77351000D01*
X114633238Y-77303380D01*
X116014190Y-78303380D02*
X115442761Y-78303380D01*
X115728476Y-78303380D02*
X115728476Y-77303380D01*
X115633238Y-77446238D01*
X115538000Y-77541476D01*
X115442761Y-77589095D01*
%TO.C,LM358*%
X65873523Y-152344380D02*
X65397333Y-152344380D01*
X65397333Y-151344380D01*
X66206857Y-152344380D02*
X66206857Y-151344380D01*
X66540190Y-152058666D01*
X66873523Y-151344380D01*
X66873523Y-152344380D01*
X67254476Y-151344380D02*
X67873523Y-151344380D01*
X67540190Y-151725333D01*
X67683047Y-151725333D01*
X67778285Y-151772952D01*
X67825904Y-151820571D01*
X67873523Y-151915809D01*
X67873523Y-152153904D01*
X67825904Y-152249142D01*
X67778285Y-152296761D01*
X67683047Y-152344380D01*
X67397333Y-152344380D01*
X67302095Y-152296761D01*
X67254476Y-152249142D01*
X68778285Y-151344380D02*
X68302095Y-151344380D01*
X68254476Y-151820571D01*
X68302095Y-151772952D01*
X68397333Y-151725333D01*
X68635428Y-151725333D01*
X68730666Y-151772952D01*
X68778285Y-151820571D01*
X68825904Y-151915809D01*
X68825904Y-152153904D01*
X68778285Y-152249142D01*
X68730666Y-152296761D01*
X68635428Y-152344380D01*
X68397333Y-152344380D01*
X68302095Y-152296761D01*
X68254476Y-152249142D01*
X69397333Y-151772952D02*
X69302095Y-151725333D01*
X69254476Y-151677714D01*
X69206857Y-151582476D01*
X69206857Y-151534857D01*
X69254476Y-151439619D01*
X69302095Y-151392000D01*
X69397333Y-151344380D01*
X69587809Y-151344380D01*
X69683047Y-151392000D01*
X69730666Y-151439619D01*
X69778285Y-151534857D01*
X69778285Y-151582476D01*
X69730666Y-151677714D01*
X69683047Y-151725333D01*
X69587809Y-151772952D01*
X69397333Y-151772952D01*
X69302095Y-151820571D01*
X69254476Y-151868190D01*
X69206857Y-151963428D01*
X69206857Y-152153904D01*
X69254476Y-152249142D01*
X69302095Y-152296761D01*
X69397333Y-152344380D01*
X69587809Y-152344380D01*
X69683047Y-152296761D01*
X69730666Y-152249142D01*
X69778285Y-152153904D01*
X69778285Y-151963428D01*
X69730666Y-151868190D01*
X69683047Y-151820571D01*
X69587809Y-151772952D01*
%TO.C,SV3*%
X117348761Y-137842476D02*
X117396380Y-137699619D01*
X117396380Y-137461523D01*
X117348761Y-137366285D01*
X117301142Y-137318666D01*
X117205904Y-137271047D01*
X117110666Y-137271047D01*
X117015428Y-137318666D01*
X116967809Y-137366285D01*
X116920190Y-137461523D01*
X116872571Y-137652000D01*
X116824952Y-137747238D01*
X116777333Y-137794857D01*
X116682095Y-137842476D01*
X116586857Y-137842476D01*
X116491619Y-137794857D01*
X116444000Y-137747238D01*
X116396380Y-137652000D01*
X116396380Y-137413904D01*
X116444000Y-137271047D01*
X116396380Y-136985333D02*
X117396380Y-136652000D01*
X116396380Y-136318666D01*
X116396380Y-136080571D02*
X116396380Y-135461523D01*
X116777333Y-135794857D01*
X116777333Y-135652000D01*
X116824952Y-135556761D01*
X116872571Y-135509142D01*
X116967809Y-135461523D01*
X117205904Y-135461523D01*
X117301142Y-135509142D01*
X117348761Y-135556761D01*
X117396380Y-135652000D01*
X117396380Y-135937714D01*
X117348761Y-136032952D01*
X117301142Y-136080571D01*
%TO.C,R4*%
X96567619Y-77557333D02*
X97043809Y-77224000D01*
X96567619Y-76985904D02*
X97567619Y-76985904D01*
X97567619Y-77366857D01*
X97520000Y-77462095D01*
X97472380Y-77509714D01*
X97377142Y-77557333D01*
X97234285Y-77557333D01*
X97139047Y-77509714D01*
X97091428Y-77462095D01*
X97043809Y-77366857D01*
X97043809Y-76985904D01*
X97234285Y-78414476D02*
X96567619Y-78414476D01*
X97615238Y-78176380D02*
X96900952Y-77938285D01*
X96900952Y-78557333D01*
%TO.C,SV1*%
X117348761Y-159178476D02*
X117396380Y-159035619D01*
X117396380Y-158797523D01*
X117348761Y-158702285D01*
X117301142Y-158654666D01*
X117205904Y-158607047D01*
X117110666Y-158607047D01*
X117015428Y-158654666D01*
X116967809Y-158702285D01*
X116920190Y-158797523D01*
X116872571Y-158988000D01*
X116824952Y-159083238D01*
X116777333Y-159130857D01*
X116682095Y-159178476D01*
X116586857Y-159178476D01*
X116491619Y-159130857D01*
X116444000Y-159083238D01*
X116396380Y-158988000D01*
X116396380Y-158749904D01*
X116444000Y-158607047D01*
X116396380Y-158321333D02*
X117396380Y-157988000D01*
X116396380Y-157654666D01*
X117396380Y-156797523D02*
X117396380Y-157368952D01*
X117396380Y-157083238D02*
X116396380Y-157083238D01*
X116539238Y-157178476D01*
X116634476Y-157273714D01*
X116682095Y-157368952D01*
%TO.C,SV2*%
X117348761Y-148510476D02*
X117396380Y-148367619D01*
X117396380Y-148129523D01*
X117348761Y-148034285D01*
X117301142Y-147986666D01*
X117205904Y-147939047D01*
X117110666Y-147939047D01*
X117015428Y-147986666D01*
X116967809Y-148034285D01*
X116920190Y-148129523D01*
X116872571Y-148320000D01*
X116824952Y-148415238D01*
X116777333Y-148462857D01*
X116682095Y-148510476D01*
X116586857Y-148510476D01*
X116491619Y-148462857D01*
X116444000Y-148415238D01*
X116396380Y-148320000D01*
X116396380Y-148081904D01*
X116444000Y-147939047D01*
X116396380Y-147653333D02*
X117396380Y-147320000D01*
X116396380Y-146986666D01*
X116491619Y-146700952D02*
X116444000Y-146653333D01*
X116396380Y-146558095D01*
X116396380Y-146320000D01*
X116444000Y-146224761D01*
X116491619Y-146177142D01*
X116586857Y-146129523D01*
X116682095Y-146129523D01*
X116824952Y-146177142D01*
X117396380Y-146748571D01*
X117396380Y-146129523D01*
%TO.C,TEENSY1*%
X90884761Y-134072380D02*
X91456190Y-134072380D01*
X91170476Y-135072380D02*
X91170476Y-134072380D01*
X91789523Y-134548571D02*
X92122857Y-134548571D01*
X92265714Y-135072380D02*
X91789523Y-135072380D01*
X91789523Y-134072380D01*
X92265714Y-134072380D01*
X92694285Y-134548571D02*
X93027619Y-134548571D01*
X93170476Y-135072380D02*
X92694285Y-135072380D01*
X92694285Y-134072380D01*
X93170476Y-134072380D01*
X93599047Y-135072380D02*
X93599047Y-134072380D01*
X94170476Y-135072380D01*
X94170476Y-134072380D01*
X94599047Y-135024761D02*
X94741904Y-135072380D01*
X94980000Y-135072380D01*
X95075238Y-135024761D01*
X95122857Y-134977142D01*
X95170476Y-134881904D01*
X95170476Y-134786666D01*
X95122857Y-134691428D01*
X95075238Y-134643809D01*
X94980000Y-134596190D01*
X94789523Y-134548571D01*
X94694285Y-134500952D01*
X94646666Y-134453333D01*
X94599047Y-134358095D01*
X94599047Y-134262857D01*
X94646666Y-134167619D01*
X94694285Y-134120000D01*
X94789523Y-134072380D01*
X95027619Y-134072380D01*
X95170476Y-134120000D01*
X95789523Y-134596190D02*
X95789523Y-135072380D01*
X95456190Y-134072380D02*
X95789523Y-134596190D01*
X96122857Y-134072380D01*
X96980000Y-135072380D02*
X96408571Y-135072380D01*
X96694285Y-135072380D02*
X96694285Y-134072380D01*
X96599047Y-134215238D01*
X96503809Y-134310476D01*
X96408571Y-134358095D01*
%TO.C,GPS1*%
X64341523Y-74176000D02*
X64246285Y-74128380D01*
X64103428Y-74128380D01*
X63960571Y-74176000D01*
X63865333Y-74271238D01*
X63817714Y-74366476D01*
X63770095Y-74556952D01*
X63770095Y-74699809D01*
X63817714Y-74890285D01*
X63865333Y-74985523D01*
X63960571Y-75080761D01*
X64103428Y-75128380D01*
X64198666Y-75128380D01*
X64341523Y-75080761D01*
X64389142Y-75033142D01*
X64389142Y-74699809D01*
X64198666Y-74699809D01*
X64817714Y-75128380D02*
X64817714Y-74128380D01*
X65198666Y-74128380D01*
X65293904Y-74176000D01*
X65341523Y-74223619D01*
X65389142Y-74318857D01*
X65389142Y-74461714D01*
X65341523Y-74556952D01*
X65293904Y-74604571D01*
X65198666Y-74652190D01*
X64817714Y-74652190D01*
X65770095Y-75080761D02*
X65912952Y-75128380D01*
X66151047Y-75128380D01*
X66246285Y-75080761D01*
X66293904Y-75033142D01*
X66341523Y-74937904D01*
X66341523Y-74842666D01*
X66293904Y-74747428D01*
X66246285Y-74699809D01*
X66151047Y-74652190D01*
X65960571Y-74604571D01*
X65865333Y-74556952D01*
X65817714Y-74509333D01*
X65770095Y-74414095D01*
X65770095Y-74318857D01*
X65817714Y-74223619D01*
X65865333Y-74176000D01*
X65960571Y-74128380D01*
X66198666Y-74128380D01*
X66341523Y-74176000D01*
X67293904Y-75128380D02*
X66722476Y-75128380D01*
X67008190Y-75128380D02*
X67008190Y-74128380D01*
X66912952Y-74271238D01*
X66817714Y-74366476D01*
X66722476Y-74414095D01*
%TO.C,LIDAR1*%
X117038380Y-115625333D02*
X117038380Y-116101523D01*
X116038380Y-116101523D01*
X117038380Y-115292000D02*
X116038380Y-115292000D01*
X117038380Y-114815809D02*
X116038380Y-114815809D01*
X116038380Y-114577714D01*
X116086000Y-114434857D01*
X116181238Y-114339619D01*
X116276476Y-114292000D01*
X116466952Y-114244380D01*
X116609809Y-114244380D01*
X116800285Y-114292000D01*
X116895523Y-114339619D01*
X116990761Y-114434857D01*
X117038380Y-114577714D01*
X117038380Y-114815809D01*
X116752666Y-113863428D02*
X116752666Y-113387238D01*
X117038380Y-113958666D02*
X116038380Y-113625333D01*
X117038380Y-113292000D01*
X117038380Y-112387238D02*
X116562190Y-112720571D01*
X117038380Y-112958666D02*
X116038380Y-112958666D01*
X116038380Y-112577714D01*
X116086000Y-112482476D01*
X116133619Y-112434857D01*
X116228857Y-112387238D01*
X116371714Y-112387238D01*
X116466952Y-112434857D01*
X116514571Y-112482476D01*
X116562190Y-112577714D01*
X116562190Y-112958666D01*
X117038380Y-111434857D02*
X117038380Y-112006285D01*
X117038380Y-111720571D02*
X116038380Y-111720571D01*
X116181238Y-111815809D01*
X116276476Y-111911047D01*
X116324095Y-112006285D01*
%TO.C,BLUE1*%
X64254285Y-71048571D02*
X64397142Y-71096190D01*
X64444761Y-71143809D01*
X64492380Y-71239047D01*
X64492380Y-71381904D01*
X64444761Y-71477142D01*
X64397142Y-71524761D01*
X64301904Y-71572380D01*
X63920952Y-71572380D01*
X63920952Y-70572380D01*
X64254285Y-70572380D01*
X64349523Y-70620000D01*
X64397142Y-70667619D01*
X64444761Y-70762857D01*
X64444761Y-70858095D01*
X64397142Y-70953333D01*
X64349523Y-71000952D01*
X64254285Y-71048571D01*
X63920952Y-71048571D01*
X65397142Y-71572380D02*
X64920952Y-71572380D01*
X64920952Y-70572380D01*
X65730476Y-70572380D02*
X65730476Y-71381904D01*
X65778095Y-71477142D01*
X65825714Y-71524761D01*
X65920952Y-71572380D01*
X66111428Y-71572380D01*
X66206666Y-71524761D01*
X66254285Y-71477142D01*
X66301904Y-71381904D01*
X66301904Y-70572380D01*
X66778095Y-71048571D02*
X67111428Y-71048571D01*
X67254285Y-71572380D02*
X66778095Y-71572380D01*
X66778095Y-70572380D01*
X67254285Y-70572380D01*
X68206666Y-71572380D02*
X67635238Y-71572380D01*
X67920952Y-71572380D02*
X67920952Y-70572380D01*
X67825714Y-70715238D01*
X67730476Y-70810476D01*
X67635238Y-70858095D01*
%TO.C,R1*%
X65992380Y-159678666D02*
X65516190Y-160012000D01*
X65992380Y-160250095D02*
X64992380Y-160250095D01*
X64992380Y-159869142D01*
X65040000Y-159773904D01*
X65087619Y-159726285D01*
X65182857Y-159678666D01*
X65325714Y-159678666D01*
X65420952Y-159726285D01*
X65468571Y-159773904D01*
X65516190Y-159869142D01*
X65516190Y-160250095D01*
X65992380Y-158726285D02*
X65992380Y-159297714D01*
X65992380Y-159012000D02*
X64992380Y-159012000D01*
X65135238Y-159107238D01*
X65230476Y-159202476D01*
X65278095Y-159297714D01*
%TO.C,IMU1*%
X66500571Y-135072380D02*
X66500571Y-134072380D01*
X66976761Y-135072380D02*
X66976761Y-134072380D01*
X67310095Y-134786666D01*
X67643428Y-134072380D01*
X67643428Y-135072380D01*
X68119619Y-134072380D02*
X68119619Y-134881904D01*
X68167238Y-134977142D01*
X68214857Y-135024761D01*
X68310095Y-135072380D01*
X68500571Y-135072380D01*
X68595809Y-135024761D01*
X68643428Y-134977142D01*
X68691047Y-134881904D01*
X68691047Y-134072380D01*
X69691047Y-135072380D02*
X69119619Y-135072380D01*
X69405333Y-135072380D02*
X69405333Y-134072380D01*
X69310095Y-134215238D01*
X69214857Y-134310476D01*
X69119619Y-134358095D01*
%TO.C,M2_POWER1*%
X66651714Y-169616380D02*
X66651714Y-168616380D01*
X66985047Y-169330666D01*
X67318380Y-168616380D01*
X67318380Y-169616380D01*
X67746952Y-168711619D02*
X67794571Y-168664000D01*
X67889809Y-168616380D01*
X68127904Y-168616380D01*
X68223142Y-168664000D01*
X68270761Y-168711619D01*
X68318380Y-168806857D01*
X68318380Y-168902095D01*
X68270761Y-169044952D01*
X67699333Y-169616380D01*
X68318380Y-169616380D01*
X68508857Y-169711619D02*
X69270761Y-169711619D01*
X69508857Y-169616380D02*
X69508857Y-168616380D01*
X69889809Y-168616380D01*
X69985047Y-168664000D01*
X70032666Y-168711619D01*
X70080285Y-168806857D01*
X70080285Y-168949714D01*
X70032666Y-169044952D01*
X69985047Y-169092571D01*
X69889809Y-169140190D01*
X69508857Y-169140190D01*
X70699333Y-168616380D02*
X70889809Y-168616380D01*
X70985047Y-168664000D01*
X71080285Y-168759238D01*
X71127904Y-168949714D01*
X71127904Y-169283047D01*
X71080285Y-169473523D01*
X70985047Y-169568761D01*
X70889809Y-169616380D01*
X70699333Y-169616380D01*
X70604095Y-169568761D01*
X70508857Y-169473523D01*
X70461238Y-169283047D01*
X70461238Y-168949714D01*
X70508857Y-168759238D01*
X70604095Y-168664000D01*
X70699333Y-168616380D01*
X71461238Y-168616380D02*
X71699333Y-169616380D01*
X71889809Y-168902095D01*
X72080285Y-169616380D01*
X72318380Y-168616380D01*
X72699333Y-169092571D02*
X73032666Y-169092571D01*
X73175523Y-169616380D02*
X72699333Y-169616380D01*
X72699333Y-168616380D01*
X73175523Y-168616380D01*
X74175523Y-169616380D02*
X73842190Y-169140190D01*
X73604095Y-169616380D02*
X73604095Y-168616380D01*
X73985047Y-168616380D01*
X74080285Y-168664000D01*
X74127904Y-168711619D01*
X74175523Y-168806857D01*
X74175523Y-168949714D01*
X74127904Y-169044952D01*
X74080285Y-169092571D01*
X73985047Y-169140190D01*
X73604095Y-169140190D01*
X75127904Y-169616380D02*
X74556476Y-169616380D01*
X74842190Y-169616380D02*
X74842190Y-168616380D01*
X74746952Y-168759238D01*
X74651714Y-168854476D01*
X74556476Y-168902095D01*
%TO.C,M1_SIGNAL1*%
X55427619Y-144097904D02*
X56427619Y-144097904D01*
X55713333Y-144431238D01*
X56427619Y-144764571D01*
X55427619Y-144764571D01*
X55427619Y-145764571D02*
X55427619Y-145193142D01*
X55427619Y-145478857D02*
X56427619Y-145478857D01*
X56284761Y-145383619D01*
X56189523Y-145288380D01*
X56141904Y-145193142D01*
X55332380Y-145955047D02*
X55332380Y-146716952D01*
X55475238Y-146907428D02*
X55427619Y-147050285D01*
X55427619Y-147288380D01*
X55475238Y-147383619D01*
X55522857Y-147431238D01*
X55618095Y-147478857D01*
X55713333Y-147478857D01*
X55808571Y-147431238D01*
X55856190Y-147383619D01*
X55903809Y-147288380D01*
X55951428Y-147097904D01*
X55999047Y-147002666D01*
X56046666Y-146955047D01*
X56141904Y-146907428D01*
X56237142Y-146907428D01*
X56332380Y-146955047D01*
X56380000Y-147002666D01*
X56427619Y-147097904D01*
X56427619Y-147336000D01*
X56380000Y-147478857D01*
X55427619Y-147907428D02*
X56427619Y-147907428D01*
X56380000Y-148907428D02*
X56427619Y-148812190D01*
X56427619Y-148669333D01*
X56380000Y-148526476D01*
X56284761Y-148431238D01*
X56189523Y-148383619D01*
X55999047Y-148336000D01*
X55856190Y-148336000D01*
X55665714Y-148383619D01*
X55570476Y-148431238D01*
X55475238Y-148526476D01*
X55427619Y-148669333D01*
X55427619Y-148764571D01*
X55475238Y-148907428D01*
X55522857Y-148955047D01*
X55856190Y-148955047D01*
X55856190Y-148764571D01*
X55427619Y-149383619D02*
X56427619Y-149383619D01*
X55427619Y-149955047D01*
X56427619Y-149955047D01*
X55713333Y-150383619D02*
X55713333Y-150859809D01*
X55427619Y-150288380D02*
X56427619Y-150621714D01*
X55427619Y-150955047D01*
X55427619Y-151764571D02*
X55427619Y-151288380D01*
X56427619Y-151288380D01*
X55427619Y-152621714D02*
X55427619Y-152050285D01*
X55427619Y-152336000D02*
X56427619Y-152336000D01*
X56284761Y-152240761D01*
X56189523Y-152145523D01*
X56141904Y-152050285D01*
%TO.C,BARO1*%
X55951428Y-113966857D02*
X55903809Y-114109714D01*
X55856190Y-114157333D01*
X55760952Y-114204952D01*
X55618095Y-114204952D01*
X55522857Y-114157333D01*
X55475238Y-114109714D01*
X55427619Y-114014476D01*
X55427619Y-113633523D01*
X56427619Y-113633523D01*
X56427619Y-113966857D01*
X56380000Y-114062095D01*
X56332380Y-114109714D01*
X56237142Y-114157333D01*
X56141904Y-114157333D01*
X56046666Y-114109714D01*
X55999047Y-114062095D01*
X55951428Y-113966857D01*
X55951428Y-113633523D01*
X55713333Y-114585904D02*
X55713333Y-115062095D01*
X55427619Y-114490666D02*
X56427619Y-114824000D01*
X55427619Y-115157333D01*
X55427619Y-116062095D02*
X55903809Y-115728761D01*
X55427619Y-115490666D02*
X56427619Y-115490666D01*
X56427619Y-115871619D01*
X56380000Y-115966857D01*
X56332380Y-116014476D01*
X56237142Y-116062095D01*
X56094285Y-116062095D01*
X55999047Y-116014476D01*
X55951428Y-115966857D01*
X55903809Y-115871619D01*
X55903809Y-115490666D01*
X56427619Y-116681142D02*
X56427619Y-116871619D01*
X56380000Y-116966857D01*
X56284761Y-117062095D01*
X56094285Y-117109714D01*
X55760952Y-117109714D01*
X55570476Y-117062095D01*
X55475238Y-116966857D01*
X55427619Y-116871619D01*
X55427619Y-116681142D01*
X55475238Y-116585904D01*
X55570476Y-116490666D01*
X55760952Y-116443047D01*
X56094285Y-116443047D01*
X56284761Y-116490666D01*
X56380000Y-116585904D01*
X56427619Y-116681142D01*
X55427619Y-118062095D02*
X55427619Y-117490666D01*
X55427619Y-117776380D02*
X56427619Y-117776380D01*
X56284761Y-117681142D01*
X56189523Y-117585904D01*
X56141904Y-117490666D01*
%TO.C,M1_POWER1*%
X81129714Y-169616380D02*
X81129714Y-168616380D01*
X81463047Y-169330666D01*
X81796380Y-168616380D01*
X81796380Y-169616380D01*
X82796380Y-169616380D02*
X82224952Y-169616380D01*
X82510666Y-169616380D02*
X82510666Y-168616380D01*
X82415428Y-168759238D01*
X82320190Y-168854476D01*
X82224952Y-168902095D01*
X82986857Y-169711619D02*
X83748761Y-169711619D01*
X83986857Y-169616380D02*
X83986857Y-168616380D01*
X84367809Y-168616380D01*
X84463047Y-168664000D01*
X84510666Y-168711619D01*
X84558285Y-168806857D01*
X84558285Y-168949714D01*
X84510666Y-169044952D01*
X84463047Y-169092571D01*
X84367809Y-169140190D01*
X83986857Y-169140190D01*
X85177333Y-168616380D02*
X85367809Y-168616380D01*
X85463047Y-168664000D01*
X85558285Y-168759238D01*
X85605904Y-168949714D01*
X85605904Y-169283047D01*
X85558285Y-169473523D01*
X85463047Y-169568761D01*
X85367809Y-169616380D01*
X85177333Y-169616380D01*
X85082095Y-169568761D01*
X84986857Y-169473523D01*
X84939238Y-169283047D01*
X84939238Y-168949714D01*
X84986857Y-168759238D01*
X85082095Y-168664000D01*
X85177333Y-168616380D01*
X85939238Y-168616380D02*
X86177333Y-169616380D01*
X86367809Y-168902095D01*
X86558285Y-169616380D01*
X86796380Y-168616380D01*
X87177333Y-169092571D02*
X87510666Y-169092571D01*
X87653523Y-169616380D02*
X87177333Y-169616380D01*
X87177333Y-168616380D01*
X87653523Y-168616380D01*
X88653523Y-169616380D02*
X88320190Y-169140190D01*
X88082095Y-169616380D02*
X88082095Y-168616380D01*
X88463047Y-168616380D01*
X88558285Y-168664000D01*
X88605904Y-168711619D01*
X88653523Y-168806857D01*
X88653523Y-168949714D01*
X88605904Y-169044952D01*
X88558285Y-169092571D01*
X88463047Y-169140190D01*
X88082095Y-169140190D01*
X89605904Y-169616380D02*
X89034476Y-169616380D01*
X89320190Y-169616380D02*
X89320190Y-168616380D01*
X89224952Y-168759238D01*
X89129714Y-168854476D01*
X89034476Y-168902095D01*
%TO.C,SV4*%
X117348761Y-127174476D02*
X117396380Y-127031619D01*
X117396380Y-126793523D01*
X117348761Y-126698285D01*
X117301142Y-126650666D01*
X117205904Y-126603047D01*
X117110666Y-126603047D01*
X117015428Y-126650666D01*
X116967809Y-126698285D01*
X116920190Y-126793523D01*
X116872571Y-126984000D01*
X116824952Y-127079238D01*
X116777333Y-127126857D01*
X116682095Y-127174476D01*
X116586857Y-127174476D01*
X116491619Y-127126857D01*
X116444000Y-127079238D01*
X116396380Y-126984000D01*
X116396380Y-126745904D01*
X116444000Y-126603047D01*
X116396380Y-126317333D02*
X117396380Y-125984000D01*
X116396380Y-125650666D01*
X116729714Y-124888761D02*
X117396380Y-124888761D01*
X116348761Y-125126857D02*
X117063047Y-125364952D01*
X117063047Y-124745904D01*
%TO.C,RED1*%
X76604952Y-71572380D02*
X76271619Y-71096190D01*
X76033523Y-71572380D02*
X76033523Y-70572380D01*
X76414476Y-70572380D01*
X76509714Y-70620000D01*
X76557333Y-70667619D01*
X76604952Y-70762857D01*
X76604952Y-70905714D01*
X76557333Y-71000952D01*
X76509714Y-71048571D01*
X76414476Y-71096190D01*
X76033523Y-71096190D01*
X77033523Y-71048571D02*
X77366857Y-71048571D01*
X77509714Y-71572380D02*
X77033523Y-71572380D01*
X77033523Y-70572380D01*
X77509714Y-70572380D01*
X77938285Y-71572380D02*
X77938285Y-70572380D01*
X78176380Y-70572380D01*
X78319238Y-70620000D01*
X78414476Y-70715238D01*
X78462095Y-70810476D01*
X78509714Y-71000952D01*
X78509714Y-71143809D01*
X78462095Y-71334285D01*
X78414476Y-71429523D01*
X78319238Y-71524761D01*
X78176380Y-71572380D01*
X77938285Y-71572380D01*
X79462095Y-71572380D02*
X78890666Y-71572380D01*
X79176380Y-71572380D02*
X79176380Y-70572380D01*
X79081142Y-70715238D01*
X78985904Y-70810476D01*
X78890666Y-70858095D01*
D11*
%TO.C,8V_BUCK1*%
X102108000Y-148336000D02*
X104648000Y-148336000D01*
X104648000Y-148336000D02*
X104648000Y-145796000D01*
X104648000Y-145796000D02*
X102108000Y-145796000D01*
X102108000Y-145796000D02*
X102108000Y-148336000D01*
X105318000Y-142126000D02*
X93818000Y-142126000D01*
X93818000Y-142126000D02*
X93818000Y-159626000D01*
X93818000Y-159626000D02*
X105318000Y-159626000D01*
X105318000Y-159626000D02*
X105318000Y-142126000D01*
%TO.C,BATT1*%
X109855000Y-175260000D02*
X109855000Y-165100000D01*
X96520000Y-175260000D02*
X109855000Y-175260000D01*
X93980000Y-167640000D02*
X96520000Y-165100000D01*
X93980000Y-172720000D02*
X96520000Y-175260000D01*
X109855000Y-165100000D02*
X96520000Y-165100000D01*
X93980000Y-167640000D02*
X93980000Y-172720000D01*
%TO.C,R2*%
X68854000Y-156972000D02*
X68854000Y-162052000D01*
X71354000Y-162052000D02*
X68854000Y-162052000D01*
X71354000Y-156972000D02*
X71354000Y-162052000D01*
X71354000Y-156972000D02*
X68854000Y-156972000D01*
X71354000Y-156972000D02*
G75*
G03*
X68854000Y-156972000I-1250000J0D01*
G01*
X68854000Y-162052000D02*
G75*
G03*
X71354000Y-162052000I1250000J0D01*
G01*
%TO.C,R3*%
X93198000Y-75184000D02*
X93198000Y-80264000D01*
X90698000Y-75184000D02*
X90698000Y-80264000D01*
X93198000Y-75184000D02*
X90698000Y-75184000D01*
X93198000Y-80264000D02*
X90698000Y-80264000D01*
X90698000Y-80264000D02*
G75*
G03*
X93198000Y-80264000I1250000J0D01*
G01*
X93198000Y-75184000D02*
G75*
G03*
X90698000Y-75184000I-1250000J0D01*
G01*
%TO.C,5V_BUCK1*%
X86360000Y-148336000D02*
X88900000Y-148336000D01*
X88900000Y-148336000D02*
X88900000Y-145796000D01*
X88900000Y-145796000D02*
X86360000Y-145796000D01*
X86360000Y-145796000D02*
X86360000Y-148336000D01*
X89570000Y-142126000D02*
X78070000Y-142126000D01*
X78070000Y-142126000D02*
X78070000Y-159626000D01*
X78070000Y-159626000D02*
X89570000Y-159626000D01*
X89570000Y-159626000D02*
X89570000Y-142126000D01*
%TO.C,M2_SIGNAL1*%
X48758000Y-161488000D02*
X54758000Y-161488000D01*
X54758000Y-161488000D02*
X54758000Y-154488000D01*
X54758000Y-154488000D02*
X48758000Y-154488000D01*
X48758000Y-154488000D02*
X48758000Y-161488000D01*
%TO.C,RADIO1*%
X107995875Y-92583000D02*
X105919425Y-92583000D01*
D12*
X107995875Y-106203750D02*
X124162975Y-106203750D01*
X124162975Y-106203750D02*
X124162975Y-78962250D01*
X124162975Y-78962250D02*
X107995875Y-78962250D01*
X107995875Y-78962250D02*
X107995875Y-106203750D01*
X107995875Y-78327250D02*
G75*
G03*
X107995875Y-78327250I-635000J0D01*
G01*
D11*
%TO.C,LM358*%
X62484000Y-150367000D02*
X72644000Y-150367000D01*
X72644000Y-150367000D02*
X72644000Y-143257000D01*
X72644000Y-143257000D02*
X62484000Y-143257000D01*
X62484000Y-143257000D02*
X62484000Y-150367000D01*
X62484000Y-148082000D02*
G75*
G03*
X62484000Y-145542000I0J1270000D01*
G01*
X62484000Y-150617000D02*
G75*
G03*
X62484000Y-150617000I-250000J0D01*
G01*
%TO.C,SV3*%
X124206000Y-136652000D02*
X124216000Y-136652000D01*
X124216000Y-141652000D02*
X118216000Y-141652000D01*
X118216000Y-141652000D02*
X118216000Y-131652000D01*
X118216000Y-131652000D02*
X124216000Y-131652000D01*
X124216000Y-131652000D02*
X124216000Y-141652000D01*
%TO.C,R4*%
X97770000Y-75184000D02*
X95270000Y-75184000D01*
X97770000Y-80264000D02*
X95270000Y-80264000D01*
X97770000Y-75184000D02*
X97770000Y-80264000D01*
X95270000Y-75184000D02*
X95270000Y-80264000D01*
X95270000Y-80264000D02*
G75*
G03*
X97770000Y-80264000I1250000J0D01*
G01*
X97770000Y-75184000D02*
G75*
G03*
X95270000Y-75184000I-1250000J0D01*
G01*
%TO.C,SV1*%
X124206000Y-157988000D02*
X124216000Y-157988000D01*
X124216000Y-162988000D02*
X118216000Y-162988000D01*
X118216000Y-162988000D02*
X118216000Y-152988000D01*
X118216000Y-152988000D02*
X124216000Y-152988000D01*
X124216000Y-152988000D02*
X124216000Y-162988000D01*
%TO.C,SV2*%
X124206000Y-147320000D02*
X124216000Y-147320000D01*
X124216000Y-152320000D02*
X118216000Y-152320000D01*
X118216000Y-152320000D02*
X118216000Y-142320000D01*
X118216000Y-142320000D02*
X124216000Y-142320000D01*
X124216000Y-142320000D02*
X124216000Y-152320000D01*
D12*
%TO.C,TEENSY1*%
X104140000Y-133350000D02*
X83820000Y-133350000D01*
X83820000Y-133350000D02*
X83820000Y-69850000D01*
X83820000Y-69850000D02*
X104140000Y-69850000D01*
X104140000Y-69850000D02*
X104140000Y-133350000D01*
D11*
X99060000Y-69850000D02*
X88900000Y-69850000D01*
X88900000Y-69850000D02*
X88900000Y-67310000D01*
X88900000Y-67310000D02*
X99060000Y-67310000D01*
X99060000Y-67310000D02*
X99060000Y-69850000D01*
D12*
X104775000Y-135255000D02*
G75*
G03*
X104775000Y-135255000I-635000J0D01*
G01*
%TO.C,GPS1*%
X52197000Y-75819000D02*
X78867000Y-75819000D01*
X78867000Y-75819000D02*
X78867000Y-102489000D01*
X78867000Y-102489000D02*
X52197000Y-102489000D01*
X52197000Y-102489000D02*
X52197000Y-75819000D01*
X52197000Y-75184000D02*
G75*
G03*
X52197000Y-75184000I-635000J0D01*
G01*
D11*
%TO.C,LIDAR1*%
X124216000Y-120042000D02*
X118216000Y-120042000D01*
X118216000Y-120042000D02*
X118216000Y-107542000D01*
X118216000Y-107542000D02*
X124216000Y-107542000D01*
X124216000Y-107542000D02*
X124216000Y-120042000D01*
%TO.C,BLUE1*%
X68790000Y-69298000D02*
X68290000Y-69298000D01*
X68540000Y-69548000D02*
X68540000Y-69048000D01*
X68720000Y-66548000D02*
G75*
G03*
X68720000Y-66548000I-2680000J0D01*
G01*
%TO.C,R1*%
X67290000Y-162052000D02*
X67290000Y-156972000D01*
X64790000Y-162052000D02*
X67290000Y-162052000D01*
X64790000Y-156972000D02*
X67290000Y-156972000D01*
X64790000Y-162052000D02*
X64790000Y-156972000D01*
X67290000Y-156972000D02*
G75*
G03*
X64790000Y-156972000I-1250000J0D01*
G01*
X64790000Y-162052000D02*
G75*
G03*
X67290000Y-162052000I1250000J0D01*
G01*
D12*
%TO.C,IMU1*%
X57912000Y-133350000D02*
X78232000Y-133350000D01*
X78232000Y-133350000D02*
X78232000Y-105410000D01*
X78232000Y-105410000D02*
X57912000Y-105410000D01*
X57912000Y-105410000D02*
X57912000Y-133350000D01*
X79502000Y-133985000D02*
G75*
G03*
X79502000Y-133985000I-635000J0D01*
G01*
D11*
%TO.C,M2_POWER1*%
X65866000Y-175220000D02*
X75866000Y-175220000D01*
X75866000Y-175220000D02*
X75866000Y-170220000D01*
X75866000Y-170220000D02*
X65866000Y-170220000D01*
X65866000Y-170220000D02*
X65866000Y-175220000D01*
X65866000Y-169970000D02*
G75*
G03*
X65866000Y-169970000I-250000J0D01*
G01*
%TO.C,M1_SIGNAL1*%
X48758000Y-151836000D02*
X54758000Y-151836000D01*
X54758000Y-151836000D02*
X54758000Y-144836000D01*
X54758000Y-144836000D02*
X48758000Y-144836000D01*
X48758000Y-144836000D02*
X48758000Y-151836000D01*
%TO.C,BARO1*%
X48758000Y-109574000D02*
X54758000Y-109574000D01*
X54758000Y-109574000D02*
X54758000Y-122074000D01*
X54758000Y-122074000D02*
X48758000Y-122074000D01*
X48758000Y-122074000D02*
X48758000Y-109574000D01*
%TO.C,M1_POWER1*%
X80344000Y-175220000D02*
X90344000Y-175220000D01*
X90344000Y-175220000D02*
X90344000Y-170220000D01*
X90344000Y-170220000D02*
X80344000Y-170220000D01*
X80344000Y-170220000D02*
X80344000Y-175220000D01*
X80344000Y-169970000D02*
G75*
G03*
X80344000Y-169970000I-250000J0D01*
G01*
%TO.C,SV4*%
X124206000Y-125984000D02*
X124216000Y-125984000D01*
X124216000Y-130984000D02*
X118216000Y-130984000D01*
X118216000Y-130984000D02*
X118216000Y-120984000D01*
X118216000Y-120984000D02*
X124216000Y-120984000D01*
X124216000Y-120984000D02*
X124216000Y-130984000D01*
%TO.C,RED1*%
X80224000Y-69548000D02*
X80224000Y-69048000D01*
X80474000Y-69298000D02*
X79974000Y-69298000D01*
X80404000Y-66548000D02*
G75*
G03*
X80404000Y-66548000I-2680000J0D01*
G01*
%TD*%
%LPC*%
D13*
%TO.C,8V_BUCK1*%
X104128000Y-158496000D03*
D14*
X95008000Y-158496000D03*
X95008000Y-143256000D03*
X104128000Y-143256000D03*
%TD*%
D15*
%TO.C,BATT1*%
X105100000Y-170180000D03*
X98100000Y-170180000D03*
%TD*%
D13*
%TO.C,R2*%
X70104000Y-154432000D03*
X70104000Y-164592000D03*
%TD*%
%TO.C,R3*%
X91948000Y-72644000D03*
X91948000Y-82804000D03*
%TD*%
%TO.C,5V_BUCK1*%
X88380000Y-158496000D03*
D14*
X79260000Y-158496000D03*
X79260000Y-143256000D03*
X88380000Y-143256000D03*
%TD*%
%TO.C,M2_SIGNAL1*%
X51308000Y-156718000D03*
X51308000Y-159258000D03*
%TD*%
%TO.C,RADIO1*%
X110999425Y-84963000D03*
X110999425Y-87503000D03*
X110999425Y-90043000D03*
X110999425Y-92583000D03*
X110999425Y-95123000D03*
X110999425Y-97663000D03*
X110999425Y-100203000D03*
X113539425Y-95123000D03*
X113539425Y-84963000D03*
X113539425Y-100203000D03*
X113539425Y-97663000D03*
X113539425Y-92583000D03*
X113539425Y-90043000D03*
X113539425Y-87503000D03*
X116079425Y-92583000D03*
X116079425Y-87503000D03*
X116079425Y-97663000D03*
X116079425Y-95123000D03*
X116079425Y-100203000D03*
X116079425Y-90043000D03*
X116079425Y-84963000D03*
%TD*%
D16*
%TO.C,LM358*%
X63754000Y-149352000D03*
X66294000Y-149352000D03*
X68834000Y-149352000D03*
X71374000Y-149352000D03*
X71374000Y-144272000D03*
X68834000Y-144272000D03*
X66294000Y-144272000D03*
X63754000Y-144272000D03*
%TD*%
D14*
%TO.C,SV3*%
X121666000Y-139192000D03*
X121666000Y-136652000D03*
X121666000Y-134112000D03*
%TD*%
D13*
%TO.C,R4*%
X96520000Y-72644000D03*
X96520000Y-82804000D03*
%TD*%
D14*
%TO.C,SV1*%
X121666000Y-160528000D03*
X121666000Y-157988000D03*
X121666000Y-155448000D03*
%TD*%
%TO.C,SV2*%
X121666000Y-149860000D03*
X121666000Y-147320000D03*
X121666000Y-144780000D03*
%TD*%
%TO.C,TEENSY1*%
X101600000Y-128270000D03*
X101600000Y-125730000D03*
X101600000Y-123190000D03*
X101600000Y-120650000D03*
X101600000Y-118110000D03*
X101600000Y-115570000D03*
X101600000Y-113030000D03*
X101600000Y-110490000D03*
X101600000Y-107950000D03*
X101600000Y-105410000D03*
X101600000Y-102870000D03*
X101600000Y-100330000D03*
X101600000Y-97790000D03*
X86360000Y-97790000D03*
X86360000Y-100330000D03*
X86360000Y-102870000D03*
X86360000Y-105410000D03*
X86360000Y-107950000D03*
X86360000Y-110490000D03*
X86360000Y-113030000D03*
X86360000Y-115570000D03*
X86360000Y-118110000D03*
X86360000Y-120650000D03*
X86360000Y-123190000D03*
X101600000Y-92710000D03*
X101600000Y-90170000D03*
X101600000Y-87630000D03*
X101600000Y-85090000D03*
X101600000Y-82550000D03*
X101600000Y-80010000D03*
X101600000Y-77470000D03*
X101600000Y-74930000D03*
X101600000Y-72390000D03*
X86360000Y-72390000D03*
X86360000Y-74930000D03*
X86360000Y-77470000D03*
X86360000Y-80010000D03*
X86360000Y-82550000D03*
X86360000Y-85090000D03*
X86360000Y-87630000D03*
X86360000Y-90170000D03*
X86360000Y-92710000D03*
X101600000Y-130810000D03*
X101600000Y-95250000D03*
X86360000Y-130810000D03*
X86360000Y-128270000D03*
X86360000Y-125730000D03*
X86360000Y-95250000D03*
%TD*%
%TO.C,GPS1*%
X54102000Y-78994000D03*
X54102000Y-81534000D03*
X54102000Y-84074000D03*
X54102000Y-86614000D03*
X54102000Y-89154000D03*
X54102000Y-91694000D03*
X54102000Y-94234000D03*
X54102000Y-96774000D03*
X76962000Y-84074000D03*
X76962000Y-86614000D03*
X76962000Y-89154000D03*
X76962000Y-91694000D03*
%TD*%
%TO.C,LIDAR1*%
X121666000Y-117602000D03*
X121666000Y-115062000D03*
X121666000Y-112522000D03*
X121666000Y-109982000D03*
%TD*%
%TO.C,BLUE1*%
X67310000Y-66548000D03*
X64770000Y-66548000D03*
%TD*%
D13*
%TO.C,R1*%
X66040000Y-164592000D03*
X66040000Y-154432000D03*
%TD*%
D14*
%TO.C,IMU1*%
X74422000Y-129540000D03*
X74422000Y-127000000D03*
X74422000Y-124460000D03*
X74422000Y-121920000D03*
X74422000Y-119380000D03*
X74422000Y-116840000D03*
X74422000Y-114300000D03*
X74422000Y-111760000D03*
X74422000Y-109220000D03*
X61722000Y-124460000D03*
X61722000Y-121920000D03*
X61722000Y-119380000D03*
X61722000Y-116840000D03*
X61722000Y-114300000D03*
%TD*%
D17*
%TO.C,M2_POWER1*%
X68326000Y-172720000D03*
X73406000Y-172720000D03*
%TD*%
D14*
%TO.C,M1_SIGNAL1*%
X51308000Y-147066000D03*
X51308000Y-149606000D03*
%TD*%
%TO.C,BARO1*%
X51308000Y-112014000D03*
X51308000Y-114554000D03*
X51308000Y-117094000D03*
X51308000Y-119634000D03*
%TD*%
D17*
%TO.C,M1_POWER1*%
X82804000Y-172720000D03*
X87884000Y-172720000D03*
%TD*%
D14*
%TO.C,SV4*%
X121666000Y-128524000D03*
X121666000Y-125984000D03*
X121666000Y-123444000D03*
%TD*%
%TO.C,RED1*%
X78994000Y-66548000D03*
X76454000Y-66548000D03*
%TD*%
M02*
