%TF.GenerationSoftware,KiCad,Pcbnew,(6.0.9)*%
%TF.CreationDate,2023-02-25T10:50:01-08:00*%
%TF.ProjectId,FlightBread,466c6967-6874-4427-9265-61642e6b6963,rev?*%
%TF.SameCoordinates,Original*%
%TF.FileFunction,Copper,L1,Top*%
%TF.FilePolarity,Positive*%
%FSLAX46Y46*%
G04 Gerber Fmt 4.6, Leading zero omitted, Abs format (unit mm)*
G04 Created by KiCad (PCBNEW (6.0.9)) date 2023-02-25 10:50:01*
%MOMM*%
%LPD*%
G01*
G04 APERTURE LIST*
G04 Aperture macros list*
%AMRoundRect*
0 Rectangle with rounded corners*
0 $1 Rounding radius*
0 $2 $3 $4 $5 $6 $7 $8 $9 X,Y pos of 4 corners*
0 Add a 4 corners polygon primitive as box body*
4,1,4,$2,$3,$4,$5,$6,$7,$8,$9,$2,$3,0*
0 Add four circle primitives for the rounded corners*
1,1,$1+$1,$2,$3*
1,1,$1+$1,$4,$5*
1,1,$1+$1,$6,$7*
1,1,$1+$1,$8,$9*
0 Add four rect primitives between the rounded corners*
20,1,$1+$1,$2,$3,$4,$5,0*
20,1,$1+$1,$4,$5,$6,$7,0*
20,1,$1+$1,$6,$7,$8,$9,0*
20,1,$1+$1,$8,$9,$2,$3,0*%
G04 Aperture macros list end*
%TA.AperFunction,ComponentPad*%
%ADD10C,1.524000*%
%TD*%
%TA.AperFunction,ComponentPad*%
%ADD11C,1.800000*%
%TD*%
%TA.AperFunction,ComponentPad*%
%ADD12C,6.000000*%
%TD*%
%TA.AperFunction,ComponentPad*%
%ADD13C,0.600000*%
%TD*%
%TA.AperFunction,SMDPad,CuDef*%
%ADD14RoundRect,0.500000X-0.500000X-1.500000X0.500000X-1.500000X0.500000X1.500000X-0.500000X1.500000X0*%
%TD*%
%TA.AperFunction,ViaPad*%
%ADD15C,0.800000*%
%TD*%
%TA.AperFunction,ViaPad*%
%ADD16C,1.000000*%
%TD*%
%TA.AperFunction,Conductor*%
%ADD17C,0.300000*%
%TD*%
%TA.AperFunction,Conductor*%
%ADD18C,2.000000*%
%TD*%
%TA.AperFunction,Conductor*%
%ADD19C,0.500000*%
%TD*%
%TA.AperFunction,Conductor*%
%ADD20C,1.000000*%
%TD*%
G04 APERTURE END LIST*
D10*
%TO.P,8V_BUCK1,1,VIN+*%
%TO.N,/BATT+*%
X104128000Y-158496000D03*
D11*
%TO.P,8V_BUCK1,2,VIN-*%
%TO.N,GND*%
X95008000Y-158496000D03*
%TO.P,8V_BUCK1,3,VOUT-*%
X95008000Y-143256000D03*
%TO.P,8V_BUCK1,4,VOUT+*%
%TO.N,+8V*%
X104128000Y-143256000D03*
%TD*%
D12*
%TO.P,BATT1,1,BATT+*%
%TO.N,/BATT+*%
X105100000Y-170180000D03*
%TO.P,BATT1,2,BATT-*%
%TO.N,GND*%
X98100000Y-170180000D03*
%TD*%
D10*
%TO.P,R2,1*%
%TO.N,Net-(LM358-Pad1)*%
X70104000Y-154432000D03*
%TO.P,R2,2*%
%TO.N,GND*%
X70104000Y-164592000D03*
%TD*%
%TO.P,R3,1*%
%TO.N,Net-(R3-Pad1)*%
X91948000Y-72644000D03*
%TO.P,R3,2*%
%TO.N,/BLUE_LED*%
X91948000Y-82804000D03*
%TD*%
%TO.P,5V_BUCK1,1,VIN+*%
%TO.N,/BATT+*%
X88380000Y-158496000D03*
D11*
%TO.P,5V_BUCK1,2,VIN-*%
%TO.N,GND*%
X79260000Y-158496000D03*
%TO.P,5V_BUCK1,3,VOUT-*%
X79260000Y-143256000D03*
%TO.P,5V_BUCK1,4,VOUT+*%
%TO.N,+5V*%
X88380000Y-143256000D03*
%TD*%
%TO.P,M2_SIGNAL1,1,S+*%
%TO.N,/M2_Signal*%
X51308000Y-156718000D03*
%TO.P,M2_SIGNAL1,2,S-*%
%TO.N,GND*%
X51308000Y-159258000D03*
%TD*%
%TO.P,RADIO1,1,CH1*%
%TO.N,/CH1*%
X110999425Y-84963000D03*
%TO.P,RADIO1,2,CH2*%
%TO.N,/CH2*%
X110999425Y-87503000D03*
%TO.P,RADIO1,3,CH3*%
%TO.N,/CH3*%
X110999425Y-90043000D03*
%TO.P,RADIO1,4,CH4*%
%TO.N,/CH4*%
X110999425Y-92583000D03*
%TO.P,RADIO1,5,CH5*%
%TO.N,/CH5*%
X110999425Y-95123000D03*
%TO.P,RADIO1,6,CH6*%
%TO.N,/CH6*%
X110999425Y-97663000D03*
%TO.P,RADIO1,7,B\u002A*%
%TO.N,unconnected-(RADIO1-Pad7)*%
X110999425Y-100203000D03*
%TO.P,RADIO1,8,VCC*%
%TO.N,+5V*%
X113539425Y-95123000D03*
X113539425Y-84963000D03*
X113539425Y-100203000D03*
X113539425Y-97663000D03*
X113539425Y-92583000D03*
X113539425Y-90043000D03*
X113539425Y-87503000D03*
%TO.P,RADIO1,9,GND*%
%TO.N,GND*%
X116079425Y-92583000D03*
X116079425Y-87503000D03*
X116079425Y-97663000D03*
X116079425Y-95123000D03*
X116079425Y-100203000D03*
X116079425Y-90043000D03*
X116079425Y-84963000D03*
%TD*%
D13*
%TO.P,LM358,1,+*%
%TO.N,Net-(LM358-Pad1)*%
X63754000Y-149352000D03*
%TO.P,LM358,2,-*%
%TO.N,/BATT_LEVEL*%
X66294000Y-149352000D03*
%TO.P,LM358,3*%
X68834000Y-149352000D03*
%TO.P,LM358,4,V+*%
%TO.N,/BATT+*%
X71374000Y-149352000D03*
%TO.P,LM358,5,V-*%
%TO.N,GND*%
X71374000Y-144272000D03*
%TO.P,LM358,6*%
%TO.N,N/C*%
X68834000Y-144272000D03*
%TO.P,LM358,7*%
X66294000Y-144272000D03*
%TO.P,LM358,8*%
X63754000Y-144272000D03*
%TD*%
D11*
%TO.P,SV3,1,PWM*%
%TO.N,/SV3_PWM*%
X121666000Y-139192000D03*
%TO.P,SV3,2,5V-8V*%
%TO.N,+8V*%
X121666000Y-136652000D03*
%TO.P,SV3,3,GND*%
%TO.N,GND*%
X121666000Y-134112000D03*
%TD*%
D10*
%TO.P,R4,1*%
%TO.N,Net-(RED1-Pad1)*%
X96520000Y-72644000D03*
%TO.P,R4,2*%
%TO.N,/RED_LED*%
X96520000Y-82804000D03*
%TD*%
D11*
%TO.P,SV1,1,PWM*%
%TO.N,/SV1_PWM*%
X121666000Y-160528000D03*
%TO.P,SV1,2,5V-8V*%
%TO.N,+8V*%
X121666000Y-157988000D03*
%TO.P,SV1,3,GND*%
%TO.N,GND*%
X121666000Y-155448000D03*
%TD*%
%TO.P,SV2,1,PWM*%
%TO.N,/SV2_PWM*%
X121666000Y-149860000D03*
%TO.P,SV2,2,5V-8V*%
%TO.N,+8V*%
X121666000Y-147320000D03*
%TO.P,SV2,3,GND*%
%TO.N,GND*%
X121666000Y-144780000D03*
%TD*%
%TO.P,TEENSY1,0,RX1*%
%TO.N,unconnected-(TEENSY1-Pad0)*%
X101600000Y-128270000D03*
%TO.P,TEENSY1,1,TX1*%
%TO.N,unconnected-(TEENSY1-Pad1)*%
X101600000Y-125730000D03*
%TO.P,TEENSY1,2*%
%TO.N,/SV1_PWM*%
X101600000Y-123190000D03*
%TO.P,TEENSY1,3*%
%TO.N,/SV2_PWM*%
X101600000Y-120650000D03*
%TO.P,TEENSY1,4*%
%TO.N,/SV3_PWM*%
X101600000Y-118110000D03*
%TO.P,TEENSY1,5*%
%TO.N,/SV4_PWM*%
X101600000Y-115570000D03*
%TO.P,TEENSY1,6*%
%TO.N,/CH6*%
X101600000Y-113030000D03*
%TO.P,TEENSY1,7,RX2*%
%TO.N,/RX2*%
X101600000Y-110490000D03*
%TO.P,TEENSY1,8,TX2*%
%TO.N,/TX2*%
X101600000Y-107950000D03*
%TO.P,TEENSY1,9*%
%TO.N,/CH5*%
X101600000Y-105410000D03*
%TO.P,TEENSY1,10*%
%TO.N,/CH4*%
X101600000Y-102870000D03*
%TO.P,TEENSY1,11*%
%TO.N,/CH3*%
X101600000Y-100330000D03*
%TO.P,TEENSY1,12*%
%TO.N,/CH2*%
X101600000Y-97790000D03*
%TO.P,TEENSY1,13,SCK(LED)*%
%TO.N,unconnected-(TEENSY1-Pad13)*%
X86360000Y-97790000D03*
%TO.P,TEENSY1,14,A0*%
%TO.N,unconnected-(TEENSY1-Pad14)*%
X86360000Y-100330000D03*
%TO.P,TEENSY1,15,A1*%
%TO.N,unconnected-(TEENSY1-Pad15)*%
X86360000Y-102870000D03*
%TO.P,TEENSY1,16,SCL1*%
%TO.N,unconnected-(TEENSY1-Pad16)*%
X86360000Y-105410000D03*
%TO.P,TEENSY1,17,SDA1*%
%TO.N,unconnected-(TEENSY1-Pad17)*%
X86360000Y-107950000D03*
%TO.P,TEENSY1,18,SDA*%
%TO.N,/SDA*%
X86360000Y-110490000D03*
%TO.P,TEENSY1,19,SCL*%
%TO.N,/SCL*%
X86360000Y-113030000D03*
%TO.P,TEENSY1,20,A6*%
%TO.N,unconnected-(TEENSY1-Pad20)*%
X86360000Y-115570000D03*
%TO.P,TEENSY1,21,A7*%
%TO.N,/BATT_LEVEL*%
X86360000Y-118110000D03*
%TO.P,TEENSY1,22,A8*%
%TO.N,/M2_Signal*%
X86360000Y-120650000D03*
%TO.P,TEENSY1,23,A9*%
%TO.N,/M1_Signal*%
X86360000Y-123190000D03*
%TO.P,TEENSY1,24,A10(SCL2)*%
%TO.N,/CH1*%
X101600000Y-92710000D03*
%TO.P,TEENSY1,25,A11(SDA2)*%
%TO.N,unconnected-(TEENSY1-Pad25)*%
X101600000Y-90170000D03*
%TO.P,TEENSY1,26,A12*%
%TO.N,/BLUE_LED*%
X101600000Y-87630000D03*
%TO.P,TEENSY1,27,A13*%
%TO.N,/RED_LED*%
X101600000Y-85090000D03*
%TO.P,TEENSY1,28,RX7*%
%TO.N,unconnected-(TEENSY1-Pad28)*%
X101600000Y-82550000D03*
%TO.P,TEENSY1,29,TX7*%
%TO.N,unconnected-(TEENSY1-Pad29)*%
X101600000Y-80010000D03*
%TO.P,TEENSY1,30,CRX3*%
%TO.N,unconnected-(TEENSY1-Pad30)*%
X101600000Y-77470000D03*
%TO.P,TEENSY1,31,CTX3*%
%TO.N,unconnected-(TEENSY1-Pad31)*%
X101600000Y-74930000D03*
%TO.P,TEENSY1,32,OUT1B*%
%TO.N,unconnected-(TEENSY1-Pad32)*%
X101600000Y-72390000D03*
%TO.P,TEENSY1,33,MCLK2*%
%TO.N,unconnected-(TEENSY1-Pad33)*%
X86360000Y-72390000D03*
%TO.P,TEENSY1,34,RX8*%
%TO.N,unconnected-(TEENSY1-Pad34)*%
X86360000Y-74930000D03*
%TO.P,TEENSY1,35,TX8*%
%TO.N,unconnected-(TEENSY1-Pad35)*%
X86360000Y-77470000D03*
%TO.P,TEENSY1,36,CS*%
%TO.N,unconnected-(TEENSY1-Pad36)*%
X86360000Y-80010000D03*
%TO.P,TEENSY1,37,CS*%
%TO.N,unconnected-(TEENSY1-Pad37)*%
X86360000Y-82550000D03*
%TO.P,TEENSY1,38,A14*%
%TO.N,unconnected-(TEENSY1-Pad38)*%
X86360000Y-85090000D03*
%TO.P,TEENSY1,39,A15*%
%TO.N,unconnected-(TEENSY1-Pad39)*%
X86360000Y-87630000D03*
%TO.P,TEENSY1,40,A16*%
%TO.N,unconnected-(TEENSY1-Pad40)*%
X86360000Y-90170000D03*
%TO.P,TEENSY1,41,A17*%
%TO.N,unconnected-(TEENSY1-Pad41)*%
X86360000Y-92710000D03*
%TO.P,TEENSY1,43,GND*%
%TO.N,GND*%
X101600000Y-130810000D03*
%TO.P,TEENSY1,44,3.3v*%
%TO.N,unconnected-(TEENSY1-Pad44)*%
X101600000Y-95250000D03*
%TO.P,TEENSY1,45,Vin*%
%TO.N,+5V*%
X86360000Y-130810000D03*
%TO.P,TEENSY1,46,GND*%
%TO.N,GND*%
X86360000Y-128270000D03*
%TO.P,TEENSY1,47,3.3v(250ma)*%
%TO.N,+3.3V*%
X86360000Y-125730000D03*
%TO.P,TEENSY1,48,GND*%
%TO.N,GND*%
X86360000Y-95250000D03*
%TD*%
%TO.P,GPS1,1,NC*%
%TO.N,unconnected-(GPS1-Pad1)*%
X54102000Y-78994000D03*
%TO.P,GPS1,2,TXO*%
%TO.N,unconnected-(GPS1-Pad2)*%
X54102000Y-81534000D03*
%TO.P,GPS1,3,RXI*%
%TO.N,unconnected-(GPS1-Pad3)*%
X54102000Y-84074000D03*
%TO.P,GPS1,4,3V3*%
%TO.N,+3.3V*%
X54102000Y-86614000D03*
%TO.P,GPS1,5,NC*%
%TO.N,unconnected-(GPS1-Pad5)*%
X54102000Y-89154000D03*
%TO.P,GPS1,6,GND*%
%TO.N,GND*%
X54102000Y-91694000D03*
%TO.P,GPS1,7,SCL*%
%TO.N,/SCL*%
X54102000Y-94234000D03*
%TO.P,GPS1,8,SDA*%
%TO.N,/SDA*%
X54102000Y-96774000D03*
%TO.P,GPS1,9,INT*%
%TO.N,unconnected-(GPS1-Pad9)*%
X76962000Y-84074000D03*
%TO.P,GPS1,10,RST*%
%TO.N,unconnected-(GPS1-Pad10)*%
X76962000Y-86614000D03*
%TO.P,GPS1,11,PPS*%
%TO.N,unconnected-(GPS1-Pad11)*%
X76962000Y-89154000D03*
%TO.P,GPS1,12,SFBOOT*%
%TO.N,unconnected-(GPS1-Pad12)*%
X76962000Y-91694000D03*
%TD*%
%TO.P,LIDAR1,1,+5V*%
%TO.N,+5V*%
X121666000Y-117602000D03*
%TO.P,LIDAR1,2,RXD*%
%TO.N,/TX2*%
X121666000Y-115062000D03*
%TO.P,LIDAR1,3,TXD*%
%TO.N,/RX2*%
X121666000Y-112522000D03*
%TO.P,LIDAR1,4,GND*%
%TO.N,GND*%
X121666000Y-109982000D03*
%TD*%
%TO.P,BLUE1,1,K*%
%TO.N,Net-(R3-Pad1)*%
X67310000Y-66548000D03*
%TO.P,BLUE1,2,A*%
%TO.N,GND*%
X64770000Y-66548000D03*
%TD*%
D10*
%TO.P,R1,1*%
%TO.N,/BATT+*%
X66040000Y-164592000D03*
%TO.P,R1,2*%
%TO.N,Net-(LM358-Pad1)*%
X66040000Y-154432000D03*
%TD*%
D11*
%TO.P,IMU1,1,VIN*%
%TO.N,+5V*%
X74422000Y-129540000D03*
%TO.P,IMU1,2,3Vo*%
%TO.N,unconnected-(IMU1-Pad2)*%
X74422000Y-127000000D03*
%TO.P,IMU1,3,GND*%
%TO.N,GND*%
X74422000Y-124460000D03*
%TO.P,IMU1,4,SCL*%
%TO.N,/SCL*%
X74422000Y-121920000D03*
%TO.P,IMU1,5,SDA*%
%TO.N,/SDA*%
X74422000Y-119380000D03*
%TO.P,IMU1,6,DO*%
%TO.N,unconnected-(IMU1-Pad6)*%
X74422000Y-116840000D03*
%TO.P,IMU1,7,CS*%
%TO.N,unconnected-(IMU1-Pad7)*%
X74422000Y-114300000D03*
%TO.P,IMU1,8,I1*%
%TO.N,unconnected-(IMU1-Pad8)*%
X74422000Y-111760000D03*
%TO.P,IMU1,9,I2*%
%TO.N,unconnected-(IMU1-Pad9)*%
X74422000Y-109220000D03*
%TO.P,IMU1,10,SCX*%
%TO.N,unconnected-(IMU1-Pad10)*%
X61722000Y-124460000D03*
%TO.P,IMU1,11,SDX*%
%TO.N,unconnected-(IMU1-Pad11)*%
X61722000Y-121920000D03*
%TO.P,IMU1,12,CS*%
%TO.N,unconnected-(IMU1-Pad12)*%
X61722000Y-119380000D03*
%TO.P,IMU1,13,DO*%
%TO.N,unconnected-(IMU1-Pad13)*%
X61722000Y-116840000D03*
%TO.P,IMU1,14,GND*%
%TO.N,GND*%
X61722000Y-114300000D03*
%TD*%
D14*
%TO.P,M2_POWER1,1,BATT+*%
%TO.N,/BATT+*%
X68326000Y-172720000D03*
%TO.P,M2_POWER1,2,BATT-*%
%TO.N,GND*%
X73406000Y-172720000D03*
%TD*%
D11*
%TO.P,M1_SIGNAL1,1,S+*%
%TO.N,/M1_Signal*%
X51308000Y-147066000D03*
%TO.P,M1_SIGNAL1,2,S-*%
%TO.N,GND*%
X51308000Y-149606000D03*
%TD*%
%TO.P,BARO1,1,3.3V*%
%TO.N,+3.3V*%
X51308000Y-112014000D03*
%TO.P,BARO1,2,GND*%
%TO.N,GND*%
X51308000Y-114554000D03*
%TO.P,BARO1,3,SCL*%
%TO.N,/SCL*%
X51308000Y-117094000D03*
%TO.P,BARO1,4,SDA*%
%TO.N,/SDA*%
X51308000Y-119634000D03*
%TD*%
D14*
%TO.P,M1_POWER1,1,BATT+*%
%TO.N,/BATT+*%
X82804000Y-172720000D03*
%TO.P,M1_POWER1,2,BATT-*%
%TO.N,GND*%
X87884000Y-172720000D03*
%TD*%
D11*
%TO.P,SV4,1,PWM*%
%TO.N,/SV4_PWM*%
X121666000Y-128524000D03*
%TO.P,SV4,2,5V-8V*%
%TO.N,+8V*%
X121666000Y-125984000D03*
%TO.P,SV4,3,GND*%
%TO.N,GND*%
X121666000Y-123444000D03*
%TD*%
%TO.P,RED1,1,K*%
%TO.N,Net-(RED1-Pad1)*%
X78994000Y-66548000D03*
%TO.P,RED1,2,A*%
%TO.N,GND*%
X76454000Y-66548000D03*
%TD*%
D15*
%TO.N,/TX2*%
X105740200Y-105791000D03*
%TO.N,GND*%
X74930000Y-171704000D03*
X89408000Y-171450000D03*
D16*
%TO.N,+5V*%
X88900000Y-132080000D03*
D15*
%TO.N,/M1_Signal*%
X82296000Y-125984000D03*
%TO.N,/M2_Signal*%
X81280000Y-128524000D03*
%TD*%
D17*
%TO.N,/SCL*%
X51384200Y-96951800D02*
X54102000Y-94234000D01*
X53771800Y-103606600D02*
X51384200Y-101219000D01*
X53771800Y-114630200D02*
X53771800Y-103606600D01*
X49530000Y-118872000D02*
X53771800Y-114630200D01*
X53340000Y-127508000D02*
X49530000Y-123698000D01*
X49530000Y-123698000D02*
X49530000Y-118872000D01*
X74422000Y-121920000D02*
X68834000Y-127508000D01*
X68834000Y-127508000D02*
X53340000Y-127508000D01*
X51384200Y-101219000D02*
X51384200Y-96951800D01*
%TO.N,/CH6*%
X108762800Y-99899625D02*
X110999425Y-97663000D01*
X108762800Y-105867200D02*
X108762800Y-99899625D01*
X101600000Y-113030000D02*
X108762800Y-105867200D01*
%TO.N,/SV3_PWM*%
X118897400Y-139192000D02*
X118922800Y-139166600D01*
X118897400Y-139217400D02*
X118897400Y-139192000D01*
X118922800Y-139192000D02*
X118897400Y-139217400D01*
X121666000Y-139192000D02*
X118922800Y-139192000D01*
X118897400Y-135407400D02*
X118897400Y-139217400D01*
X101600000Y-118110000D02*
X118897400Y-135407400D01*
D18*
%TO.N,/BATT+*%
X82804000Y-165557200D02*
X83261200Y-165100000D01*
X82804000Y-172720000D02*
X82804000Y-165557200D01*
X83261200Y-165100000D02*
X88392000Y-165100000D01*
X75946000Y-165100000D02*
X83261200Y-165100000D01*
D17*
%TO.N,/TX2*%
X103581200Y-107950000D02*
X105740200Y-105791000D01*
X101600000Y-107950000D02*
X103581200Y-107950000D01*
%TO.N,/SV2_PWM*%
X117322600Y-145516600D02*
X121666000Y-149860000D01*
X117322600Y-136347200D02*
X117322600Y-145516600D01*
X117297200Y-136347200D02*
X117322600Y-136347200D01*
X101600000Y-120650000D02*
X117297200Y-136347200D01*
%TO.N,/SV1_PWM*%
X115798600Y-154787600D02*
X115925600Y-154787600D01*
X115798600Y-137388600D02*
X115798600Y-154787600D01*
X101600000Y-123190000D02*
X115798600Y-137388600D01*
X115925600Y-154787600D02*
X121666000Y-160528000D01*
%TO.N,/CH5*%
X107442000Y-98680425D02*
X107442000Y-99568000D01*
X107442000Y-99568000D02*
X101600000Y-105410000D01*
X110999425Y-95123000D02*
X107442000Y-98680425D01*
%TO.N,/CH4*%
X106349800Y-98120200D02*
X101600000Y-102870000D01*
X106349800Y-97232625D02*
X106349800Y-98120200D01*
X110999425Y-92583000D02*
X106349800Y-97232625D01*
%TO.N,/CH3*%
X105308400Y-96621600D02*
X101600000Y-100330000D01*
X105308400Y-95734025D02*
X105308400Y-96621600D01*
X110999425Y-90043000D02*
X105308400Y-95734025D01*
%TO.N,/CH2*%
X104140000Y-95250000D02*
X104140000Y-94362425D01*
X104140000Y-94362425D02*
X110999425Y-87503000D01*
X101600000Y-97790000D02*
X104140000Y-95250000D01*
D18*
%TO.N,/BATT+*%
X105100000Y-159468000D02*
X104128000Y-158496000D01*
X105100000Y-170180000D02*
X105100000Y-159468000D01*
X101955600Y-158496000D02*
X104128000Y-158496000D01*
X95351600Y-165100000D02*
X101955600Y-158496000D01*
X88392000Y-165100000D02*
X95351600Y-165100000D01*
D17*
%TO.N,/SV1_PWM*%
X121666000Y-160528000D02*
X122428000Y-160528000D01*
%TO.N,/SV2_PWM*%
X121666000Y-149860000D02*
X122428000Y-149860000D01*
%TO.N,/SV3_PWM*%
X121666000Y-139192000D02*
X122428000Y-139192000D01*
%TO.N,/SV4_PWM*%
X108712000Y-115570000D02*
X121666000Y-128524000D01*
X101600000Y-115570000D02*
X108712000Y-115570000D01*
%TO.N,/CH1*%
X103252425Y-92710000D02*
X110999425Y-84963000D01*
X110999425Y-84963000D02*
X111761425Y-84963000D01*
X101600000Y-92710000D02*
X103252425Y-92710000D01*
%TO.N,/CH2*%
X110999425Y-87503000D02*
X111761425Y-87503000D01*
%TO.N,/CH3*%
X110999425Y-90043000D02*
X111761425Y-90043000D01*
%TO.N,/CH4*%
X110999425Y-92583000D02*
X111761425Y-92583000D01*
%TO.N,/CH5*%
X110999425Y-95123000D02*
X111761425Y-95123000D01*
%TO.N,/SDA*%
X52578000Y-119634000D02*
X51308000Y-119634000D01*
X51308000Y-119634000D02*
X51308000Y-121158000D01*
X54102000Y-96774000D02*
X55880000Y-98552000D01*
X67818000Y-125984000D02*
X74422000Y-119380000D01*
X55880000Y-116332000D02*
X52578000Y-119634000D01*
X51308000Y-121158000D02*
X56134000Y-125984000D01*
X74422000Y-119380000D02*
X77470000Y-119380000D01*
X56134000Y-125984000D02*
X67818000Y-125984000D01*
X55880000Y-98552000D02*
X55880000Y-116332000D01*
X77470000Y-119380000D02*
X86360000Y-110490000D01*
%TO.N,/SCL*%
X77470000Y-121920000D02*
X86360000Y-113030000D01*
X74422000Y-121920000D02*
X77470000Y-121920000D01*
D19*
%TO.N,/RED_LED*%
X98806000Y-85090000D02*
X96520000Y-82804000D01*
X101600000Y-85090000D02*
X98806000Y-85090000D01*
%TO.N,/BLUE_LED*%
X96774000Y-87630000D02*
X91948000Y-82804000D01*
X101600000Y-87630000D02*
X96774000Y-87630000D01*
D17*
%TO.N,/CH6*%
X110999425Y-97663000D02*
X111761425Y-97663000D01*
%TO.N,/BATT_LEVEL*%
X91440000Y-129540000D02*
X91440000Y-122936000D01*
X91440000Y-143256000D02*
X87884000Y-146812000D01*
X87884000Y-146812000D02*
X71374000Y-146812000D01*
X86614000Y-118110000D02*
X86360000Y-118110000D01*
X91440000Y-129540000D02*
X91440000Y-143256000D01*
X91440000Y-122936000D02*
X86614000Y-118110000D01*
X66294000Y-149352000D02*
X68834000Y-149352000D01*
X71374000Y-146812000D02*
X68834000Y-149352000D01*
D19*
%TO.N,GND*%
X73406000Y-172720000D02*
X73914000Y-172720000D01*
D20*
X73914000Y-172720000D02*
X74930000Y-171704000D01*
D19*
X87884000Y-172720000D02*
X88138000Y-172720000D01*
D20*
X88138000Y-172720000D02*
X89408000Y-171450000D01*
D19*
%TO.N,+5V*%
X113539425Y-109475425D02*
X113539425Y-84963000D01*
X86360000Y-130810000D02*
X85090000Y-129540000D01*
X86360000Y-141236000D02*
X86360000Y-130810000D01*
X121666000Y-117602000D02*
X113539425Y-109475425D01*
X86360000Y-130810000D02*
X87630000Y-130810000D01*
X88380000Y-143256000D02*
X86360000Y-141236000D01*
X87630000Y-130810000D02*
X88900000Y-132080000D01*
X85090000Y-129540000D02*
X74422000Y-129540000D01*
X121862000Y-117602000D02*
X121666000Y-117602000D01*
%TO.N,+3.3V*%
X51308000Y-112014000D02*
X49784000Y-110490000D01*
X49784000Y-110490000D02*
X49784000Y-90932000D01*
X49784000Y-90932000D02*
X54102000Y-86614000D01*
%TO.N,/BATT+*%
X66040000Y-170434000D02*
X66040000Y-164592000D01*
D18*
X88380000Y-165088000D02*
X88392000Y-165100000D01*
X88392000Y-165100000D02*
X88392000Y-158508000D01*
D19*
X71374000Y-149352000D02*
X79236000Y-149352000D01*
X68326000Y-172720000D02*
X66040000Y-170434000D01*
D18*
X88392000Y-158508000D02*
X88380000Y-158496000D01*
D19*
X79236000Y-149352000D02*
X88380000Y-158496000D01*
D18*
X68326000Y-172720000D02*
X75946000Y-165100000D01*
X88380000Y-158496000D02*
X88380000Y-165088000D01*
D19*
%TO.N,Net-(LM358-Pad1)*%
X66040000Y-151638000D02*
X63754000Y-149352000D01*
X66040000Y-154432000D02*
X70104000Y-154432000D01*
X66040000Y-154432000D02*
X66040000Y-151638000D01*
D17*
%TO.N,/M1_Signal*%
X82296000Y-125984000D02*
X82296000Y-124968000D01*
X84074000Y-123190000D02*
X86360000Y-123190000D01*
X82296000Y-124968000D02*
X84074000Y-123190000D01*
%TO.N,/M2_Signal*%
X81280000Y-128524000D02*
X81280000Y-123444000D01*
X84074000Y-120650000D02*
X86360000Y-120650000D01*
X81280000Y-123444000D02*
X84074000Y-120650000D01*
D19*
%TO.N,Net-(R3-Pad1)*%
X67310000Y-66548000D02*
X71120000Y-66548000D01*
X74676000Y-70104000D02*
X89408000Y-70104000D01*
X89408000Y-70104000D02*
X91948000Y-72644000D01*
X71120000Y-66548000D02*
X74676000Y-70104000D01*
%TO.N,Net-(RED1-Pad1)*%
X90424000Y-66548000D02*
X96520000Y-72644000D01*
X78994000Y-66548000D02*
X90424000Y-66548000D01*
%TD*%
M02*
